<svg xmlns="http://www.w3.org/2000/svg" xmlns:xlink="http://www.w3.org/1999/xlink" width="1080" zoomAndPan="magnify" viewBox="0 0 810 809.999993" height="1080" preserveAspectRatio="xMidYMid meet" version="1.0"><defs><g/><clipPath id="2e55fa63e0"><path d="M 473 218 L 531 218 L 531 241 L 473 241 Z M 473 218 " clip-rule="nonzero"/></clipPath><clipPath id="2cc77160d0"><path d="M 613.460938 210.1875 L 490.992188 267.035156 L 435.292969 147.039062 L 557.761719 90.195312 Z M 613.460938 210.1875 " clip-rule="nonzero"/></clipPath><clipPath id="8ab41811b0"><path d="M 613.460938 210.1875 L 490.992188 267.035156 L 435.292969 147.039062 L 557.761719 90.195312 Z M 613.460938 210.1875 " clip-rule="nonzero"/></clipPath><clipPath id="df00aad0de"><path d="M 613.460938 210.1875 L 490.992188 267.035156 L 435.292969 147.039062 L 557.761719 90.195312 Z M 613.460938 210.1875 " clip-rule="nonzero"/></clipPath><clipPath id="3ffe467931"><path d="M 463 201 L 466 201 L 466 207 L 463 207 Z M 463 201 " clip-rule="nonzero"/></clipPath><clipPath id="4519527904"><path d="M 613.460938 210.1875 L 490.992188 267.035156 L 435.292969 147.039062 L 557.761719 90.195312 Z M 613.460938 210.1875 " clip-rule="nonzero"/></clipPath><clipPath id="85daf5c2d9"><path d="M 613.460938 210.1875 L 490.992188 267.035156 L 435.292969 147.039062 L 557.761719 90.195312 Z M 613.460938 210.1875 " clip-rule="nonzero"/></clipPath><clipPath id="c99749a28f"><path d="M 613.460938 210.1875 L 490.992188 267.035156 L 435.292969 147.039062 L 557.761719 90.195312 Z M 613.460938 210.1875 " clip-rule="nonzero"/></clipPath><clipPath id="7b1811f86c"><path d="M 573 159 L 576 159 L 576 165 L 573 165 Z M 573 159 " clip-rule="nonzero"/></clipPath><clipPath id="8452b716de"><path d="M 613.460938 210.1875 L 490.992188 267.035156 L 435.292969 147.039062 L 557.761719 90.195312 Z M 613.460938 210.1875 " clip-rule="nonzero"/></clipPath><clipPath id="06639101ae"><path d="M 613.460938 210.1875 L 490.992188 267.035156 L 435.292969 147.039062 L 557.761719 90.195312 Z M 613.460938 210.1875 " clip-rule="nonzero"/></clipPath><clipPath id="09c8a2d3a9"><path d="M 613.460938 210.1875 L 490.992188 267.035156 L 435.292969 147.039062 L 557.761719 90.195312 Z M 613.460938 210.1875 " clip-rule="nonzero"/></clipPath><clipPath id="30e2c1a59a"><path d="M 536 220 L 560 220 L 560 233 L 536 233 Z M 536 220 " clip-rule="nonzero"/></clipPath><clipPath id="430da23f17"><path d="M 613.460938 210.1875 L 490.992188 267.035156 L 435.292969 147.039062 L 557.761719 90.195312 Z M 613.460938 210.1875 " clip-rule="nonzero"/></clipPath><clipPath id="554c7d24ed"><path d="M 613.460938 210.1875 L 490.992188 267.035156 L 435.292969 147.039062 L 557.761719 90.195312 Z M 613.460938 210.1875 " clip-rule="nonzero"/></clipPath><clipPath id="84a8e609ff"><path d="M 613.460938 210.1875 L 490.992188 267.035156 L 435.292969 147.039062 L 557.761719 90.195312 Z M 613.460938 210.1875 " clip-rule="nonzero"/></clipPath><clipPath id="1db713c9cd"><path d="M 505 228 L 528 228 L 528 233 L 505 233 Z M 505 228 " clip-rule="nonzero"/></clipPath><clipPath id="54fb21584d"><path d="M 613.460938 210.1875 L 490.992188 267.035156 L 435.292969 147.039062 L 557.761719 90.195312 Z M 613.460938 210.1875 " clip-rule="nonzero"/></clipPath><clipPath id="9235037cb9"><path d="M 613.460938 210.1875 L 490.992188 267.035156 L 435.292969 147.039062 L 557.761719 90.195312 Z M 613.460938 210.1875 " clip-rule="nonzero"/></clipPath><clipPath id="f834e39db5"><path d="M 613.460938 210.1875 L 490.992188 267.035156 L 435.292969 147.039062 L 557.761719 90.195312 Z M 613.460938 210.1875 " clip-rule="nonzero"/></clipPath><clipPath id="c5de6741fe"><path d="M 530 131 L 538 131 L 538 135 L 530 135 Z M 530 131 " clip-rule="nonzero"/></clipPath><clipPath id="bd20dd633f"><path d="M 613.460938 210.1875 L 490.992188 267.035156 L 435.292969 147.039062 L 557.761719 90.195312 Z M 613.460938 210.1875 " clip-rule="nonzero"/></clipPath><clipPath id="74418ba58a"><path d="M 613.460938 210.1875 L 490.992188 267.035156 L 435.292969 147.039062 L 557.761719 90.195312 Z M 613.460938 210.1875 " clip-rule="nonzero"/></clipPath><clipPath id="2f72a79864"><path d="M 613.460938 210.1875 L 490.992188 267.035156 L 435.292969 147.039062 L 557.761719 90.195312 Z M 613.460938 210.1875 " clip-rule="nonzero"/></clipPath><clipPath id="192b565dfd"><path d="M 575 166 L 577 166 L 577 169 L 575 169 Z M 575 166 " clip-rule="nonzero"/></clipPath><clipPath id="5653036550"><path d="M 613.460938 210.1875 L 490.992188 267.035156 L 435.292969 147.039062 L 557.761719 90.195312 Z M 613.460938 210.1875 " clip-rule="nonzero"/></clipPath><clipPath id="2ca4ecae76"><path d="M 613.460938 210.1875 L 490.992188 267.035156 L 435.292969 147.039062 L 557.761719 90.195312 Z M 613.460938 210.1875 " clip-rule="nonzero"/></clipPath><clipPath id="2e61efbd3a"><path d="M 613.460938 210.1875 L 490.992188 267.035156 L 435.292969 147.039062 L 557.761719 90.195312 Z M 613.460938 210.1875 " clip-rule="nonzero"/></clipPath><clipPath id="165314eee4"><path d="M 536 134 L 541 134 L 541 137 L 536 137 Z M 536 134 " clip-rule="nonzero"/></clipPath><clipPath id="ab3b1ec30c"><path d="M 613.460938 210.1875 L 490.992188 267.035156 L 435.292969 147.039062 L 557.761719 90.195312 Z M 613.460938 210.1875 " clip-rule="nonzero"/></clipPath><clipPath id="ba20dfb3e3"><path d="M 613.460938 210.1875 L 490.992188 267.035156 L 435.292969 147.039062 L 557.761719 90.195312 Z M 613.460938 210.1875 " clip-rule="nonzero"/></clipPath><clipPath id="da5c29362a"><path d="M 613.460938 210.1875 L 490.992188 267.035156 L 435.292969 147.039062 L 557.761719 90.195312 Z M 613.460938 210.1875 " clip-rule="nonzero"/></clipPath><clipPath id="71bba939fe"><path d="M 556 153 L 562 153 L 562 170 L 556 170 Z M 556 153 " clip-rule="nonzero"/></clipPath><clipPath id="e317b8f05e"><path d="M 613.460938 210.1875 L 490.992188 267.035156 L 435.292969 147.039062 L 557.761719 90.195312 Z M 613.460938 210.1875 " clip-rule="nonzero"/></clipPath><clipPath id="005caaf4e8"><path d="M 613.460938 210.1875 L 490.992188 267.035156 L 435.292969 147.039062 L 557.761719 90.195312 Z M 613.460938 210.1875 " clip-rule="nonzero"/></clipPath><clipPath id="66088b5fd3"><path d="M 613.460938 210.1875 L 490.992188 267.035156 L 435.292969 147.039062 L 557.761719 90.195312 Z M 613.460938 210.1875 " clip-rule="nonzero"/></clipPath><clipPath id="08fc02d224"><path d="M 458 112 L 592 112 L 592 241 L 458 241 Z M 458 112 " clip-rule="nonzero"/></clipPath><clipPath id="2e58753b9b"><path d="M 613.460938 210.1875 L 490.992188 267.035156 L 435.292969 147.039062 L 557.761719 90.195312 Z M 613.460938 210.1875 " clip-rule="nonzero"/></clipPath><clipPath id="06a1ba6e5d"><path d="M 613.460938 210.1875 L 490.992188 267.035156 L 435.292969 147.039062 L 557.761719 90.195312 Z M 613.460938 210.1875 " clip-rule="nonzero"/></clipPath><clipPath id="c9fd906b99"><path d="M 613.460938 210.1875 L 490.992188 267.035156 L 435.292969 147.039062 L 557.761719 90.195312 Z M 613.460938 210.1875 " clip-rule="nonzero"/></clipPath><clipPath id="50267f25a5"><path d="M 519 129 L 530 129 L 530 132 L 519 132 Z M 519 129 " clip-rule="nonzero"/></clipPath><clipPath id="80d9c03243"><path d="M 613.460938 210.1875 L 490.992188 267.035156 L 435.292969 147.039062 L 557.761719 90.195312 Z M 613.460938 210.1875 " clip-rule="nonzero"/></clipPath><clipPath id="b378e6407b"><path d="M 613.460938 210.1875 L 490.992188 267.035156 L 435.292969 147.039062 L 557.761719 90.195312 Z M 613.460938 210.1875 " clip-rule="nonzero"/></clipPath><clipPath id="5387cb3a0d"><path d="M 613.460938 210.1875 L 490.992188 267.035156 L 435.292969 147.039062 L 557.761719 90.195312 Z M 613.460938 210.1875 " clip-rule="nonzero"/></clipPath><clipPath id="bdf853cc49"><path d="M 553 178 L 562 178 L 562 199 L 553 199 Z M 553 178 " clip-rule="nonzero"/></clipPath><clipPath id="2d91c04b56"><path d="M 613.460938 210.1875 L 490.992188 267.035156 L 435.292969 147.039062 L 557.761719 90.195312 Z M 613.460938 210.1875 " clip-rule="nonzero"/></clipPath><clipPath id="853b52b795"><path d="M 613.460938 210.1875 L 490.992188 267.035156 L 435.292969 147.039062 L 557.761719 90.195312 Z M 613.460938 210.1875 " clip-rule="nonzero"/></clipPath><clipPath id="cc50093e76"><path d="M 613.460938 210.1875 L 490.992188 267.035156 L 435.292969 147.039062 L 557.761719 90.195312 Z M 613.460938 210.1875 " clip-rule="nonzero"/></clipPath><clipPath id="c29dfb8077"><path d="M 536 134 L 538 134 L 538 135 L 536 135 Z M 536 134 " clip-rule="nonzero"/></clipPath><clipPath id="4fbf5b877f"><path d="M 613.460938 210.1875 L 490.992188 267.035156 L 435.292969 147.039062 L 557.761719 90.195312 Z M 613.460938 210.1875 " clip-rule="nonzero"/></clipPath><clipPath id="d7ba9c7ed0"><path d="M 613.460938 210.1875 L 490.992188 267.035156 L 435.292969 147.039062 L 557.761719 90.195312 Z M 613.460938 210.1875 " clip-rule="nonzero"/></clipPath><clipPath id="8e555552e1"><path d="M 613.460938 210.1875 L 490.992188 267.035156 L 435.292969 147.039062 L 557.761719 90.195312 Z M 613.460938 210.1875 " clip-rule="nonzero"/></clipPath><clipPath id="715f5a1341"><path d="M 556 212 L 562 212 L 562 218 L 556 218 Z M 556 212 " clip-rule="nonzero"/></clipPath><clipPath id="354ecd2efe"><path d="M 613.460938 210.1875 L 490.992188 267.035156 L 435.292969 147.039062 L 557.761719 90.195312 Z M 613.460938 210.1875 " clip-rule="nonzero"/></clipPath><clipPath id="cbf42f22df"><path d="M 613.460938 210.1875 L 490.992188 267.035156 L 435.292969 147.039062 L 557.761719 90.195312 Z M 613.460938 210.1875 " clip-rule="nonzero"/></clipPath><clipPath id="19d896af02"><path d="M 613.460938 210.1875 L 490.992188 267.035156 L 435.292969 147.039062 L 557.761719 90.195312 Z M 613.460938 210.1875 " clip-rule="nonzero"/></clipPath><clipPath id="c01939a307"><path d="M 502 225 L 534 225 L 534 230 L 502 230 Z M 502 225 " clip-rule="nonzero"/></clipPath><clipPath id="cad0437846"><path d="M 613.460938 210.1875 L 490.992188 267.035156 L 435.292969 147.039062 L 557.761719 90.195312 Z M 613.460938 210.1875 " clip-rule="nonzero"/></clipPath><clipPath id="72dc2fd600"><path d="M 613.460938 210.1875 L 490.992188 267.035156 L 435.292969 147.039062 L 557.761719 90.195312 Z M 613.460938 210.1875 " clip-rule="nonzero"/></clipPath><clipPath id="106501edaa"><path d="M 613.460938 210.1875 L 490.992188 267.035156 L 435.292969 147.039062 L 557.761719 90.195312 Z M 613.460938 210.1875 " clip-rule="nonzero"/></clipPath><clipPath id="761e3cebb7"><path d="M 543 205 L 548 205 L 548 209 L 543 209 Z M 543 205 " clip-rule="nonzero"/></clipPath><clipPath id="fc0fe7d7e6"><path d="M 613.460938 210.1875 L 490.992188 267.035156 L 435.292969 147.039062 L 557.761719 90.195312 Z M 613.460938 210.1875 " clip-rule="nonzero"/></clipPath><clipPath id="ac029c8cdc"><path d="M 613.460938 210.1875 L 490.992188 267.035156 L 435.292969 147.039062 L 557.761719 90.195312 Z M 613.460938 210.1875 " clip-rule="nonzero"/></clipPath><clipPath id="4be6b1904a"><path d="M 613.460938 210.1875 L 490.992188 267.035156 L 435.292969 147.039062 L 557.761719 90.195312 Z M 613.460938 210.1875 " clip-rule="nonzero"/></clipPath><clipPath id="a4b3e8442f"><path d="M 568 198 L 570 198 L 570 203 L 568 203 Z M 568 198 " clip-rule="nonzero"/></clipPath><clipPath id="c696909c81"><path d="M 613.460938 210.1875 L 490.992188 267.035156 L 435.292969 147.039062 L 557.761719 90.195312 Z M 613.460938 210.1875 " clip-rule="nonzero"/></clipPath><clipPath id="cac8a9fbbb"><path d="M 613.460938 210.1875 L 490.992188 267.035156 L 435.292969 147.039062 L 557.761719 90.195312 Z M 613.460938 210.1875 " clip-rule="nonzero"/></clipPath><clipPath id="d85b6f8e76"><path d="M 613.460938 210.1875 L 490.992188 267.035156 L 435.292969 147.039062 L 557.761719 90.195312 Z M 613.460938 210.1875 " clip-rule="nonzero"/></clipPath><clipPath id="430653a4ec"><path d="M 532 211 L 537 211 L 537 213 L 532 213 Z M 532 211 " clip-rule="nonzero"/></clipPath><clipPath id="449bbafa73"><path d="M 613.460938 210.1875 L 490.992188 267.035156 L 435.292969 147.039062 L 557.761719 90.195312 Z M 613.460938 210.1875 " clip-rule="nonzero"/></clipPath><clipPath id="dd60d0687e"><path d="M 613.460938 210.1875 L 490.992188 267.035156 L 435.292969 147.039062 L 557.761719 90.195312 Z M 613.460938 210.1875 " clip-rule="nonzero"/></clipPath><clipPath id="49ca380e2b"><path d="M 613.460938 210.1875 L 490.992188 267.035156 L 435.292969 147.039062 L 557.761719 90.195312 Z M 613.460938 210.1875 " clip-rule="nonzero"/></clipPath><clipPath id="0e36169539"><path d="M 512 213 L 518 213 L 518 215 L 512 215 Z M 512 213 " clip-rule="nonzero"/></clipPath><clipPath id="e0736932c3"><path d="M 613.460938 210.1875 L 490.992188 267.035156 L 435.292969 147.039062 L 557.761719 90.195312 Z M 613.460938 210.1875 " clip-rule="nonzero"/></clipPath><clipPath id="3ddad4547c"><path d="M 613.460938 210.1875 L 490.992188 267.035156 L 435.292969 147.039062 L 557.761719 90.195312 Z M 613.460938 210.1875 " clip-rule="nonzero"/></clipPath><clipPath id="03eb9a3a00"><path d="M 613.460938 210.1875 L 490.992188 267.035156 L 435.292969 147.039062 L 557.761719 90.195312 Z M 613.460938 210.1875 " clip-rule="nonzero"/></clipPath></defs><g clip-path="url(#2e55fa63e0)"><g clip-path="url(#2cc77160d0)"><g clip-path="url(#8ab41811b0)"><g clip-path="url(#df00aad0de)"><path fill="#000000" d="M 513.851562 239.121094 C 507.042969 238.671875 500.261719 236.992188 494.09375 234.28125 C 491 232.945312 488.042969 231.378906 485.285156 229.609375 C 482.527344 227.84375 479.90625 225.949219 477.535156 223.890625 C 481.367188 227.140625 485.554688 229.957031 490.007812 232.238281 C 486.675781 230.519531 483.78125 228.582031 481.09375 226.382812 C 478.40625 224.183594 475.925781 221.699219 473.570312 218.722656 C 474.09375 219.015625 474.667969 219.476562 475.261719 220.003906 C 475.863281 220.527344 476.507812 221.089844 477.132812 221.632812 C 477.742188 222.183594 478.371094 222.664062 478.929688 223.019531 C 479.488281 223.375 479.980469 223.605469 480.355469 223.613281 C 487.222656 229.277344 495.152344 233.683594 503.683594 236.46875 C 512.203125 239.269531 521.359375 240.355469 530.351562 239.507812 C 526.960938 241.113281 523.925781 241.113281 521.285156 240.644531 C 518.625 240.210938 516.328125 239.3125 513.851562 239.121094 " fill-opacity="1" fill-rule="nonzero"/></g></g></g></g><g clip-path="url(#3ffe467931)"><g clip-path="url(#4519527904)"><g clip-path="url(#85daf5c2d9)"><g clip-path="url(#c99749a28f)"><path fill="#000000" d="M 463.394531 201.6875 C 463.800781 202.480469 464.203125 203.265625 464.597656 204.042969 C 464.980469 204.828125 465.441406 205.5625 465.855469 206.316406 C 464.839844 204.785156 463.992188 203.1875 463.394531 201.6875 " fill-opacity="1" fill-rule="nonzero"/></g></g></g></g><g clip-path="url(#7b1811f86c)"><g clip-path="url(#8452b716de)"><g clip-path="url(#06639101ae)"><g clip-path="url(#09c8a2d3a9)"><path fill="#000000" d="M 575.28125 164.34375 C 574.808594 162.609375 574.261719 160.898438 573.746094 159.246094 C 574.453125 160.855469 574.902344 162.59375 575.28125 164.34375 " fill-opacity="1" fill-rule="nonzero"/></g></g></g></g><g clip-path="url(#30e2c1a59a)"><g clip-path="url(#430da23f17)"><g clip-path="url(#554c7d24ed)"><g clip-path="url(#84a8e609ff)"><path fill="#000000" d="M 536.230469 232.136719 C 537.164062 231.730469 538.078125 231.265625 539.019531 230.863281 C 546.355469 228.683594 553.453125 225.109375 559.75 220.128906 C 556.371094 222.875 552.746094 225.574219 548.789062 227.75 C 544.84375 229.921875 540.554688 231.535156 536.230469 232.136719 " fill-opacity="1" fill-rule="nonzero"/></g></g></g></g><g clip-path="url(#1db713c9cd)"><g clip-path="url(#54fb21584d)"><g clip-path="url(#9235037cb9)"><g clip-path="url(#f834e39db5)"><path fill="#000000" d="M 527.800781 231.773438 C 524.039062 232.300781 520.175781 232.324219 516.441406 231.84375 C 512.707031 231.367188 509.101562 230.382812 505.835938 228.992188 C 512.425781 231.585938 520.121094 232.589844 527.800781 231.773438 " fill-opacity="1" fill-rule="nonzero"/></g></g></g></g><g clip-path="url(#c5de6741fe)"><g clip-path="url(#bd20dd633f)"><g clip-path="url(#74418ba58a)"><g clip-path="url(#2f72a79864)"><path fill="#000000" d="M 537.5 134.125 C 537.449219 134.308594 537.292969 134.398438 537.09375 134.445312 C 536.914062 134.429688 536.742188 134.441406 536.585938 134.496094 C 534.492188 133.433594 532.3125 132.496094 530.050781 131.746094 C 530.644531 131.789062 531.261719 131.574219 531.855469 131.695312 C 532.480469 131.921875 532.957031 132.191406 533.375 132.417969 C 533.796875 132.648438 534.152344 132.867188 534.511719 133.09375 C 534.878906 133.3125 535.257812 133.503906 535.734375 133.664062 C 536.207031 133.824219 536.757812 134.003906 537.5 134.125 " fill-opacity="1" fill-rule="nonzero"/></g></g></g></g><g clip-path="url(#192b565dfd)"><g clip-path="url(#5653036550)"><g clip-path="url(#2ca4ecae76)"><g clip-path="url(#2e61efbd3a)"><path fill="#000000" d="M 575.6875 166.300781 C 575.730469 166.359375 575.773438 166.414062 575.816406 166.472656 C 575.957031 167.074219 576.113281 167.664062 576.207031 168.265625 C 576.199219 168.339844 576.1875 168.410156 576.175781 168.492188 C 576.011719 167.765625 575.851562 167.035156 575.6875 166.300781 " fill-opacity="1" fill-rule="nonzero"/></g></g></g></g><g clip-path="url(#165314eee4)"><g clip-path="url(#ab3b1ec30c)"><g clip-path="url(#ba20dfb3e3)"><g clip-path="url(#da5c29362a)"><path fill="#000000" d="M 540.207031 135.441406 C 540.097656 135.773438 539.984375 136.113281 540.039062 136.453125 C 539.496094 136.082031 538.914062 135.78125 538.347656 135.445312 C 537.785156 135.101562 537.195312 134.8125 536.609375 134.507812 C 536.78125 134.496094 536.953125 134.480469 537.09375 134.445312 C 537.324219 134.46875 537.566406 134.539062 537.820312 134.628906 C 538.070312 134.722656 538.328125 134.851562 538.589844 134.972656 C 539.113281 135.21875 539.675781 135.410156 540.207031 135.441406 " fill-opacity="1" fill-rule="nonzero"/></g></g></g></g><g clip-path="url(#71bba939fe)"><g clip-path="url(#e317b8f05e)"><g clip-path="url(#005caaf4e8)"><g clip-path="url(#66088b5fd3)"><path fill="#000000" d="M 558.417969 157.800781 C 558.746094 158.527344 559.695312 158.902344 560.015625 159.1875 C 560.347656 161.335938 560.558594 163.441406 560.832031 165.855469 C 561.078125 166.183594 561.269531 166.949219 561.773438 167.621094 C 561.558594 168.117188 561.390625 168.628906 561.257812 169.152344 C 560.601562 163.929688 558.933594 158.652344 556.238281 153.667969 C 556.652344 154.300781 557.023438 154.976562 557.417969 155.644531 C 557.757812 156.347656 558.113281 157.058594 558.417969 157.800781 " fill-opacity="1" fill-rule="nonzero"/></g></g></g></g><g clip-path="url(#08fc02d224)"><g clip-path="url(#2e58753b9b)"><g clip-path="url(#06a1ba6e5d)"><g clip-path="url(#c9fd906b99)"><path fill="#000000" d="M 473.53125 195.539062 C 472.5 193.570312 471.773438 191.363281 471.179688 189.101562 C 470.617188 186.824219 470.257812 184.472656 470.007812 182.125 C 469.554688 177.410156 469.550781 172.785156 469.21875 168.347656 C 468.589844 170.847656 468.125 173.664062 467.960938 176.5 C 467.78125 179.335938 467.832031 182.1875 467.964844 184.78125 C 468.285156 189.964844 468.960938 194.125 467.816406 195.460938 C 467.238281 196.128906 466.597656 195.574219 465.898438 194.195312 C 465.570312 193.503906 465.261719 192.597656 464.941406 191.554688 C 464.65625 190.503906 464.382812 189.300781 464.160156 188.011719 C 463.710938 185.421875 463.519531 182.472656 463.476562 179.640625 C 463.449219 176.804688 463.636719 174.089844 463.710938 171.890625 C 463.335938 173.050781 463.335938 173.050781 462.964844 174.210938 C 463.355469 173.035156 463.675781 171.894531 463.425781 170.832031 C 463.199219 171.402344 463.007812 172.117188 462.816406 172.894531 C 462.617188 173.667969 462.40625 174.507812 462.246094 175.316406 C 462.078125 176.128906 461.867188 176.914062 461.699219 177.585938 C 461.527344 178.257812 461.328125 178.816406 461.09375 179.171875 C 460.8125 178.464844 460.511719 177.753906 460.25 177.027344 C 459.175781 180.203125 458.917969 184.933594 459.332031 189.683594 C 459.722656 194.441406 460.773438 199.160156 461.148438 202.730469 C 459.367188 194.4375 458.3125 185.570312 458.917969 176.449219 C 459.207031 171.894531 459.886719 167.296875 461.007812 162.734375 C 462.152344 158.179688 463.753906 153.671875 465.8125 149.316406 C 467.882812 144.96875 470.464844 140.808594 473.472656 136.933594 C 476.484375 133.0625 479.996094 129.546875 483.839844 126.453125 C 487.683594 123.347656 491.933594 120.773438 496.363281 118.699219 C 500.800781 116.640625 505.453125 115.082031 510.164062 114.199219 C 515.394531 113.035156 520.699219 112.390625 525.96875 112.390625 C 528.609375 112.34375 531.230469 112.53125 533.84375 112.757812 C 536.445312 113.058594 539.042969 113.417969 541.589844 113.988281 C 544.15625 114.507812 546.660156 115.234375 549.152344 116.011719 C 551.613281 116.855469 554.066406 117.761719 556.429688 118.855469 C 561.171875 121.015625 565.714844 123.648438 569.875 126.796875 C 571.371094 128.058594 573.722656 130.441406 575.890625 133.421875 C 578.089844 136.375 580.132812 139.855469 581.59375 142.859375 C 584.5625 147.964844 586.921875 153.464844 588.628906 159.210938 C 589.015625 160.65625 589.460938 162.09375 589.769531 163.566406 L 590.265625 165.765625 L 590.675781 167.988281 L 590.875 169.105469 L 591.035156 170.222656 L 591.351562 172.46875 L 591.582031 174.730469 C 591.664062 175.484375 591.734375 176.242188 591.769531 177 C 591.878906 180.230469 591.625 183.449219 591.210938 186.644531 C 590.753906 189.832031 590.039062 192.980469 589.121094 196.066406 C 587.21875 202.21875 584.433594 208.109375 580.8125 213.511719 C 573.601562 224.332031 563.214844 233.261719 550.839844 239.257812 C 549.601562 239.84375 548.152344 240.28125 546.882812 240.5 C 545.597656 240.683594 544.503906 240.667969 543.957031 240.414062 C 543.410156 240.164062 543.410156 239.679688 544.273438 238.921875 C 544.699219 238.539062 545.351562 238.109375 546.242188 237.570312 C 547.117188 236.996094 548.265625 236.390625 549.65625 235.585938 C 554.210938 232.828125 558.515625 229.695312 562.480469 226.195312 C 566.4375 222.679688 570.03125 218.78125 573.222656 214.582031 C 573.226562 214.964844 573.003906 215.484375 572.652344 216.078125 C 572.480469 216.375 572.269531 216.695312 572.042969 217.023438 C 571.808594 217.34375 571.546875 217.675781 571.277344 218.011719 C 570.230469 219.378906 568.964844 220.742188 568.390625 221.847656 C 571.386719 219.238281 573.847656 216.527344 576.027344 213.632812 C 578.199219 210.730469 580.089844 207.632812 581.742188 204.085938 C 579.542969 208.816406 576.800781 213.304688 573.574219 217.445312 C 577.605469 212.277344 581.175781 206.308594 583.6875 199.746094 C 586.25 193.210938 587.703125 186.089844 587.894531 178.996094 C 587.984375 176.410156 588.785156 173.980469 589.097656 171.199219 C 589.460938 168.4375 589.304688 165.300781 587.535156 161.851562 C 588.179688 166.488281 588.335938 171.203125 588.011719 175.882812 C 587.671875 180.558594 586.851562 185.195312 585.597656 189.695312 C 583.078125 198.695312 578.847656 207.164062 573.222656 214.582031 C 573.226562 214.539062 573.234375 214.496094 573.226562 214.464844 C 570.777344 217.8125 568.09375 220.753906 565.1875 223.386719 C 562.285156 226.023438 559.171875 228.375 555.796875 230.523438 C 556.300781 230.160156 556.820312 229.8125 557.316406 229.433594 C 557.808594 229.054688 558.300781 228.679688 558.785156 228.308594 C 559.773438 227.59375 560.683594 226.84375 561.605469 226.238281 L 559.789062 227.453125 L 557.933594 228.597656 C 556.714844 229.375 555.429688 230.035156 554.183594 230.746094 C 551.632812 232.066406 549.070312 233.316406 546.417969 234.339844 C 543.792969 235.417969 541.082031 236.269531 538.359375 237.03125 C 536.984375 237.359375 535.621094 237.738281 534.226562 237.984375 C 533.53125 238.117188 532.839844 238.261719 532.144531 238.378906 L 530.046875 238.683594 C 537.808594 236.714844 545.324219 233.605469 552.1875 229.316406 C 559.0625 225.039062 565.292969 219.535156 570.28125 213.046875 C 575.28125 206.570312 579.035156 199.125 581.15625 191.3125 C 583.289062 183.511719 583.765625 175.347656 582.550781 167.679688 C 582.269531 172.089844 582.511719 177.070312 582.0625 181.96875 C 581.613281 186.835938 580.484375 191.566406 578.324219 194.773438 C 579.460938 191.480469 580.34375 188.097656 580.941406 184.652344 C 581.523438 181.207031 581.832031 177.707031 581.851562 174.183594 C 581.894531 167.144531 580.761719 160.011719 578.375 153.195312 C 578.859375 154.160156 579.351562 155.097656 579.820312 156.054688 C 578.976562 151.582031 577.089844 147.214844 574.660156 143.203125 C 572.222656 139.179688 569.226562 135.542969 566.199219 132.167969 C 565.65625 131.5625 565.140625 130.9375 564.558594 130.363281 C 565.125 130.9375 565.648438 131.570312 566.199219 132.167969 C 571.707031 138.457031 575.773438 145.675781 578.375 153.195312 C 576.722656 149.921875 575.101562 146.445312 572.808594 142.414062 C 573.222656 143.632812 573.746094 145.078125 574.378906 146.605469 C 574.953125 148.160156 575.628906 149.804688 576.167969 151.496094 C 577.945312 155.785156 579.242188 160.285156 579.902344 164.832031 C 578.609375 157.839844 575.699219 151.3125 571.910156 146.246094 C 573.921875 150.507812 575.625 154.953125 576.726562 159.566406 C 577.835938 164.164062 578.464844 168.890625 578.363281 173.546875 C 578.230469 170.996094 577.972656 168.453125 577.488281 165.953125 C 577.050781 163.445312 576.390625 160.988281 575.621094 158.578125 C 573.460938 150.359375 569.433594 142.46875 563.621094 135.851562 C 563.871094 136.078125 564.097656 136.324219 564.335938 136.5625 C 563.902344 136.054688 563.417969 135.589844 562.949219 135.117188 C 560.632812 132.574219 558.0625 130.230469 555.273438 128.144531 C 552.71875 126.328125 549.859375 125.085938 546.96875 124.15625 C 546.511719 123.933594 546.054688 123.710938 545.601562 123.488281 C 546.585938 123.65625 547.164062 123.578125 545.539062 122.621094 C 542.085938 120.515625 538 119.253906 533.746094 118.414062 C 532.6875 118.171875 531.597656 118.039062 530.511719 117.84375 C 529.421875 117.667969 528.316406 117.546875 527.207031 117.371094 C 524.96875 117.109375 522.695312 116.839844 520.382812 116.566406 C 517.9375 116.238281 514.605469 116.628906 511.148438 117.480469 C 510.15625 117.398438 509.679688 117.65625 509.285156 117.972656 C 508.550781 118.195312 507.796875 118.382812 507.066406 118.628906 C 506.164062 118.894531 505.25 119.125 504.363281 119.429688 C 503.484375 119.75 502.609375 120.078125 501.777344 120.476562 C 502.632812 120.171875 503.507812 119.867188 504.386719 119.535156 C 505.269531 119.21875 506.171875 118.941406 507.066406 118.628906 C 507.746094 118.433594 508.433594 118.296875 509.109375 118.113281 C 508.691406 118.46875 508.261719 118.855469 507.265625 119.117188 C 513.53125 117.726562 520.125 117.332031 526.644531 118.113281 C 533.160156 118.878906 539.585938 120.710938 545.601562 123.488281 C 544.773438 123.386719 543.648438 123.15625 543.164062 123.117188 C 544.433594 123.425781 545.71875 123.734375 546.96875 124.15625 C 550.808594 126.050781 554.480469 128.308594 557.890625 130.945312 C 556.796875 130.25 555.683594 129.742188 554.652344 129.398438 C 559.457031 133.070312 563.792969 137.390625 567.328125 142.335938 C 569.109375 144.796875 570.722656 147.390625 572.089844 150.117188 C 573.460938 152.839844 574.691406 155.652344 575.621094 158.578125 C 578.535156 169.730469 577.851562 181.46875 574.128906 191.957031 C 576.792969 186.515625 578.292969 180.113281 578.363281 173.546875 C 578.554688 177.902344 578.242188 182.296875 577.417969 186.605469 C 576.589844 190.910156 575.214844 195.117188 573.378906 199.109375 C 569.730469 207.109375 563.980469 214.140625 556.976562 219.296875 C 557.402344 218.582031 557.878906 217.828125 558.371094 217.082031 C 558.859375 216.332031 559.308594 215.53125 559.742188 214.78125 C 560.179688 214.039062 560.507812 213.253906 560.789062 212.558594 C 560.925781 212.207031 561.039062 211.871094 561.125 211.546875 C 561.203125 211.21875 561.25 210.90625 561.269531 210.613281 C 561.117188 210.519531 560.78125 210.691406 560.386719 210.953125 C 559.972656 211.199219 559.503906 211.535156 559.109375 211.804688 C 558.320312 212.347656 557.835938 212.617188 558.722656 211.390625 C 559.511719 210.257812 560.203125 209.132812 560.914062 208.09375 C 561.566406 207.011719 562.257812 206.03125 562.828125 205.03125 C 564.046875 203.082031 565.023438 201.222656 565.824219 199.511719 C 567.382812 196.0625 567.949219 193.015625 566.753906 190.449219 C 566.566406 190.183594 565.976562 190.582031 565.21875 191.226562 C 564.816406 191.546875 564.371094 191.921875 563.910156 192.316406 C 563.683594 192.507812 563.449219 192.710938 563.210938 192.910156 C 562.964844 193.101562 562.71875 193.289062 562.476562 193.476562 C 561.988281 193.84375 561.527344 194.191406 561.089844 194.460938 C 560.644531 194.726562 560.246094 194.929688 559.925781 195.035156 C 559.28125 195.25 558.941406 195.085938 559.136719 194.28125 C 560.058594 191.730469 561.617188 187.160156 562.210938 182.09375 C 562.414062 181.382812 562.507812 180.640625 562.660156 179.890625 C 562.777344 179.136719 562.84375 178.363281 562.933594 177.578125 C 563.015625 177.386719 562.808594 177.042969 562.574219 176.621094 C 562.605469 173.882812 562.382812 171.230469 562.042969 168.921875 C 561.734375 166.609375 561.242188 164.652344 560.976562 163.226562 C 560.859375 162.703125 560.738281 162.179688 560.617188 161.65625 C 560.503906 161.132812 560.324219 160.628906 560.183594 160.109375 C 560.195312 159.507812 560.28125 158.953125 560.445312 158.46875 C 559.910156 157.945312 559.492188 157.382812 559.050781 156.839844 C 557.980469 154.148438 556.617188 151.605469 555 149.261719 C 554.304688 147.804688 553.582031 146.316406 552.671875 144.972656 C 552.515625 145.164062 552.453125 145.574219 552.066406 145.523438 C 550.902344 144.160156 549.582031 142.949219 548.253906 141.75 C 546.871094 140.617188 545.472656 139.496094 543.957031 138.546875 C 543.433594 138.007812 542.921875 137.5 542.453125 136.964844 C 542.21875 136.699219 541.996094 136.417969 541.777344 136.140625 C 541.558594 135.871094 541.347656 135.597656 541.148438 135.316406 C 538.867188 135.359375 535.859375 134.257812 532.457031 133.296875 C 529.082031 132.285156 525.273438 131.542969 522.121094 131.609375 L 522.128906 131.691406 C 518.976562 131.566406 515.785156 131.757812 512.609375 132.335938 C 512.050781 132.242188 511.5 132.105469 510.960938 131.925781 C 510.253906 132.453125 509.453125 132.71875 509.109375 132.984375 C 506.550781 133.421875 504.316406 133.757812 502.058594 134.265625 C 501.753906 134.59375 501.382812 135.59375 500.625 135.980469 C 499.832031 136.320312 499.113281 136.757812 498.378906 137.152344 C 497.667969 137.578125 496.992188 138.042969 496.320312 138.488281 C 494.726562 139.507812 493.101562 140.539062 491.589844 141.769531 C 486.390625 145.765625 482.042969 150.839844 478.789062 156.625 C 478.445312 156.707031 478.105469 156.617188 477.761719 156.527344 C 477.734375 157.089844 477.550781 157.6875 477.316406 158.253906 C 477.203125 158.539062 477.085938 158.816406 476.988281 159.085938 C 476.898438 159.355469 476.839844 159.617188 476.820312 159.859375 C 476.769531 159.652344 476.671875 159.5 476.488281 159.464844 C 476.382812 160.246094 476.226562 160.839844 476.0625 161.34375 C 475.917969 161.855469 475.734375 162.265625 475.527344 162.664062 C 475.3125 163.0625 475.085938 163.449219 474.875 163.90625 C 474.65625 164.363281 474.410156 164.882812 474.1875 165.554688 C 474.085938 166.183594 474.320312 166.828125 474.304688 167.449219 C 474.207031 167.742188 474.148438 168.042969 474.070312 168.34375 C 473.585938 169.070312 473.183594 169.828125 472.964844 170.617188 C 472.722656 171.402344 472.550781 172.210938 472.5 173.039062 C 472.464844 173.449219 472.445312 173.867188 472.425781 174.289062 C 472.410156 174.707031 472.4375 175.132812 472.445312 175.558594 C 472.457031 175.988281 472.472656 176.421875 472.484375 176.855469 C 472.515625 177.292969 472.546875 177.734375 472.566406 178.183594 C 472.390625 181.78125 472.589844 185.449219 473.253906 189.085938 C 473.558594 190.515625 473.542969 191.585938 473.535156 192.558594 C 473.511719 193.058594 473.488281 193.53125 473.464844 194.015625 C 473.453125 194.5 473.472656 194.992188 473.53125 195.539062 " fill-opacity="1" fill-rule="nonzero"/></g></g></g></g><g clip-path="url(#50267f25a5)"><g clip-path="url(#80d9c03243)"><g clip-path="url(#b378e6407b)"><g clip-path="url(#5387cb3a0d)"><path fill="#000000" d="M 529.222656 131.492188 C 526.246094 130.566406 523.15625 129.933594 519.996094 129.621094 C 520.417969 129.625 520.839844 129.613281 521.253906 129.601562 C 521.664062 129.589844 522.074219 129.613281 522.480469 129.613281 C 522.886719 129.621094 523.289062 129.625 523.683594 129.640625 C 524.082031 129.675781 524.472656 129.714844 524.863281 129.765625 C 525.640625 129.851562 526.398438 130.039062 527.128906 130.316406 C 527.867188 130.566406 528.5625 130.976562 529.222656 131.492188 " fill-opacity="1" fill-rule="nonzero"/></g></g></g></g><g clip-path="url(#bdf853cc49)"><g clip-path="url(#2d91c04b56)"><g clip-path="url(#853b52b795)"><g clip-path="url(#cc50093e76)"><path fill="#000000" d="M 557.230469 195.746094 C 556.660156 196.089844 556.128906 196.476562 555.570312 196.878906 C 555.027344 197.285156 554.527344 197.742188 553.988281 198.199219 C 558.203125 192.375 560.820312 185.367188 561.429688 178.070312 L 561.511719 178.066406 C 561.433594 181.015625 560.558594 184.550781 559.453125 187.664062 C 558.386719 190.808594 557.230469 193.578125 557.230469 195.746094 " fill-opacity="1" fill-rule="nonzero"/></g></g></g></g><g clip-path="url(#c29dfb8077)"><g clip-path="url(#4fbf5b877f)"><g clip-path="url(#d7ba9c7ed0)"><g clip-path="url(#8e555552e1)"><path fill="#000000" d="M 537.09375 134.445312 C 536.953125 134.480469 536.78125 134.496094 536.609375 134.507812 C 536.601562 134.503906 536.59375 134.5 536.585938 134.496094 C 536.742188 134.441406 536.914062 134.429688 537.09375 134.445312 " fill-opacity="1" fill-rule="nonzero"/></g></g></g></g><g clip-path="url(#715f5a1341)"><g clip-path="url(#354ecd2efe)"><g clip-path="url(#cbf42f22df)"><g clip-path="url(#19d896af02)"><path fill="#000000" d="M 556.949219 216.769531 C 556.703125 216.972656 556.460938 217.171875 556.214844 217.371094 C 557.078125 216.527344 557.949219 215.699219 558.757812 214.808594 C 559.597656 213.949219 560.367188 213.027344 561.15625 212.125 C 560.046875 213.703125 558.601562 215.304688 556.949219 216.769531 " fill-opacity="1" fill-rule="nonzero"/></g></g></g></g><g clip-path="url(#c01939a307)"><g clip-path="url(#cad0437846)"><g clip-path="url(#72dc2fd600)"><g clip-path="url(#106501edaa)"><path fill="#000000" d="M 533.953125 227.824219 C 533.375 228.003906 532.785156 228.148438 532.195312 228.285156 C 531.605469 228.421875 531.015625 228.570312 530.421875 228.699219 C 529.226562 228.910156 528.039062 229.179688 526.828125 229.316406 C 524.421875 229.6875 521.984375 229.8125 519.542969 229.851562 C 513.277344 229.488281 507.238281 227.800781 502.1875 225.015625 C 512.015625 228.96875 523.171875 230.125 533.953125 227.824219 " fill-opacity="1" fill-rule="nonzero"/></g></g></g></g><g clip-path="url(#761e3cebb7)"><g clip-path="url(#fc0fe7d7e6)"><g clip-path="url(#ac029c8cdc)"><g clip-path="url(#4be6b1904a)"><path fill="#000000" d="M 547.585938 206.109375 C 547.253906 206.296875 546.925781 206.492188 546.582031 206.667969 C 546.234375 206.828125 545.886719 206.996094 545.535156 207.160156 C 544.851562 207.503906 544.113281 207.761719 543.410156 208.058594 C 544.039062 207.652344 544.6875 207.273438 545.277344 206.820312 L 546.191406 206.175781 C 546.488281 205.953125 546.769531 205.710938 547.0625 205.480469 C 547.007812 205.847656 547.402344 205.941406 547.585938 206.109375 " fill-opacity="1" fill-rule="nonzero"/></g></g></g></g><g clip-path="url(#a4b3e8442f)"><g clip-path="url(#c696909c81)"><g clip-path="url(#cac8a9fbbb)"><g clip-path="url(#d85b6f8e76)"><path fill="#000000" d="M 568.828125 200.738281 C 568.59375 201.164062 568.359375 201.589844 568.125 202.011719 C 568.582031 200.839844 568.914062 199.617188 569.265625 198.425781 C 569.210938 198.894531 568.949219 199.953125 568.828125 200.738281 " fill-opacity="1" fill-rule="nonzero"/></g></g></g></g><g clip-path="url(#430653a4ec)"><g clip-path="url(#449bbafa73)"><g clip-path="url(#dd60d0687e)"><g clip-path="url(#49ca380e2b)"><path fill="#000000" d="M 532.976562 212.441406 C 533.511719 212.335938 534.023438 212.167969 534.542969 212.015625 C 535.066406 211.863281 535.589844 211.722656 536.09375 211.523438 C 535.5625 211.929688 535.027344 212.308594 534.515625 212.800781 C 534.0625 212.589844 533.546875 212.5 532.976562 212.441406 " fill-opacity="1" fill-rule="nonzero"/></g></g></g></g><g clip-path="url(#0e36169539)"><g clip-path="url(#e0736932c3)"><g clip-path="url(#3ddad4547c)"><g clip-path="url(#03eb9a3a00)"><path fill="#000000" d="M 516.484375 214.3125 C 515.75 214.210938 515.03125 214.09375 514.328125 213.96875 C 513.632812 213.792969 512.941406 213.664062 512.285156 213.453125 C 513.96875 213.710938 515.695312 213.9375 517.402344 213.992188 C 516.992188 214.207031 516.660156 214.402344 516.484375 214.3125 " fill-opacity="1" fill-rule="nonzero"/></g></g></g></g><g fill="#000000" fill-opacity="1"><g transform="translate(196.562707, 229.231893)"><g><path d="M 84.15625 -62.421875 C 84.15625 -58.109375 83.039062 -54.375 80.8125 -51.21875 C 78.59375 -48.0625 75.941406 -45.226562 72.859375 -42.71875 C 69.773438 -40.207031 66.867188 -37.800781 64.140625 -35.5 C 61.410156 -33.207031 59.472656 -30.703125 58.328125 -27.984375 C 58.328125 -27.835938 58.289062 -27.726562 58.21875 -27.65625 C 58.144531 -27.582031 58.109375 -27.472656 58.109375 -27.328125 C 58.109375 -26.472656 59.039062 -25.9375 60.90625 -25.71875 C 62.769531 -25.5 65.101562 -25.316406 67.90625 -25.171875 C 70.707031 -25.035156 73.539062 -24.644531 76.40625 -24 C 79.28125 -23.351562 81.648438 -22.164062 83.515625 -20.4375 C 85.378906 -18.71875 86.3125 -16.207031 86.3125 -12.90625 C 86.3125 -9.46875 85.410156 -6.3125 83.609375 -3.4375 C 81.816406 -0.570312 77.625 0.859375 71.03125 0.859375 C 66.582031 0.859375 61.34375 0.710938 55.3125 0.421875 C 49.289062 0.140625 43.300781 -0.25 37.34375 -0.75 C 31.382812 -1.25 26.179688 -1.71875 21.734375 -2.15625 C 17.285156 -2.582031 13.878906 -4.125 11.515625 -6.78125 C 9.148438 -9.4375 7.96875 -12.34375 7.96875 -15.5 C 7.96875 -19.65625 9.6875 -23.097656 13.125 -25.828125 C 18.582031 -30.273438 23.390625 -34.472656 27.546875 -38.421875 C 31.710938 -42.367188 35.015625 -45.738281 37.453125 -48.53125 C 39.890625 -51.332031 41.109375 -53.164062 41.109375 -54.03125 C 41.109375 -55.175781 40.460938 -55.890625 39.171875 -56.171875 C 37.878906 -56.460938 36.226562 -56.609375 34.21875 -56.609375 C 32.644531 -56.609375 30.925781 -56.570312 29.0625 -56.5 C 27.195312 -56.425781 25.257812 -56.390625 23.25 -56.390625 C 17.9375 -56.390625 13.445312 -57.25 9.78125 -58.96875 C 6.125 -60.695312 4.296875 -64.789062 4.296875 -71.25 C 4.296875 -75.40625 5.476562 -78.414062 7.84375 -80.28125 C 10.21875 -82.144531 13.914062 -83.289062 18.9375 -83.71875 C 23.957031 -84.15625 30.414062 -84.375 38.3125 -84.375 C 43.625 -84.375 48.96875 -84.117188 54.34375 -83.609375 C 59.726562 -83.109375 64.679688 -82.101562 69.203125 -80.59375 C 73.722656 -79.09375 77.34375 -76.867188 80.0625 -73.921875 C 82.789062 -70.984375 84.15625 -67.148438 84.15625 -62.421875 Z M 84.15625 -62.421875 "/></g></g></g><g fill="#000000" fill-opacity="1"><g transform="translate(289.313029, 229.231893)"><g><path d="M 93.625 -32.71875 C 94.769531 -30.851562 96.347656 -29.597656 98.359375 -28.953125 C 100.367188 -28.304688 102.59375 -27.910156 105.03125 -27.765625 C 107.46875 -27.617188 109.796875 -27.332031 112.015625 -26.90625 C 114.242188 -26.476562 116.078125 -25.507812 117.515625 -24 C 118.953125 -22.488281 119.671875 -20.082031 119.671875 -16.78125 C 119.671875 -12.476562 118.414062 -8.960938 115.90625 -6.234375 C 113.394531 -3.515625 110.238281 -1.472656 106.4375 -0.109375 C 102.632812 1.253906 98.613281 2.1875 94.375 2.6875 C 90.144531 3.1875 86.304688 3.4375 82.859375 3.4375 C 77.554688 3.4375 72.390625 2.503906 67.359375 0.640625 C 62.335938 -1.222656 57.601562 -4.453125 53.15625 -9.046875 C 50.4375 -11.910156 47.785156 -14.023438 45.203125 -15.390625 C 42.617188 -16.753906 39.820312 -17.4375 36.8125 -17.4375 C 34.65625 -17.4375 32.285156 -17.003906 29.703125 -16.140625 C 27.117188 -15.273438 24.609375 -14.84375 22.171875 -14.84375 C 19.015625 -14.84375 15.710938 -15.847656 12.265625 -17.859375 C 8.828125 -19.867188 5.921875 -22.453125 3.546875 -25.609375 C 1.179688 -28.765625 0 -31.992188 0 -35.296875 C 0 -40.035156 1.679688 -44.125 5.046875 -47.5625 C 8.421875 -51.007812 12.191406 -52.734375 16.359375 -52.734375 C 17.222656 -52.734375 18.117188 -52.695312 19.046875 -52.625 C 19.984375 -52.550781 20.804688 -52.515625 21.515625 -52.515625 C 26.398438 -52.515625 30.203125 -53.84375 32.921875 -56.5 C 35.648438 -59.15625 38.378906 -62.5625 41.109375 -66.71875 C 43.546875 -71.457031 47.023438 -75.546875 51.546875 -78.984375 C 56.066406 -82.429688 61.125 -85.085938 66.71875 -86.953125 C 72.3125 -88.816406 77.765625 -89.75 83.078125 -89.75 C 89.390625 -89.75 94.335938 -88.0625 97.921875 -84.6875 C 101.515625 -81.320312 104.0625 -77.160156 105.5625 -72.203125 C 107.070312 -67.253906 107.828125 -62.484375 107.828125 -57.890625 C 107.828125 -55.453125 107.429688 -53.015625 106.640625 -50.578125 C 105.859375 -48.140625 104.390625 -45.703125 102.234375 -43.265625 C 100.796875 -41.679688 99 -40.316406 96.84375 -39.171875 C 94.695312 -38.023438 93.625 -35.875 93.625 -32.71875 Z M 93.625 -32.71875 "/></g></g></g><g fill="#000000" fill-opacity="1"><g transform="translate(415.419027, 229.231893)"><g><path d="M 63.703125 -44.34375 C 59.117188 -42.332031 55.460938 -39.140625 52.734375 -34.765625 C 50.003906 -30.390625 47.78125 -25.546875 46.0625 -20.234375 C 44.34375 -14.921875 42.617188 -9.820312 40.890625 -4.9375 C 39.171875 -0.0625 36.984375 3.953125 34.328125 7.109375 C 31.671875 10.265625 28.117188 11.84375 23.671875 11.84375 C 19.367188 11.84375 15.960938 10.726562 13.453125 8.5 C 10.941406 6.28125 9.144531 3.445312 8.0625 0 C 6.988281 -3.445312 6.453125 -7.175781 6.453125 -11.1875 C 6.453125 -16.070312 7.421875 -20.804688 9.359375 -25.390625 C 11.296875 -29.984375 14.054688 -33.96875 17.640625 -37.34375 C 21.234375 -40.71875 25.328125 -42.976562 29.921875 -44.125 C 34.078125 -45.125 37.660156 -46.953125 40.671875 -49.609375 C 43.691406 -52.265625 46.5625 -55.097656 49.28125 -58.109375 C 52.007812 -61.128906 54.878906 -63.75 57.890625 -65.96875 C 60.910156 -68.195312 64.5 -69.3125 68.65625 -69.3125 C 72.820312 -69.3125 76.519531 -68.160156 79.75 -65.859375 C 82.976562 -63.566406 85.703125 -60.695312 87.921875 -57.25 C 90.148438 -53.8125 91.835938 -50.222656 92.984375 -46.484375 C 94.128906 -42.753906 94.703125 -39.382812 94.703125 -36.375 C 94.703125 -31.5 95.523438 -26.976562 97.171875 -22.8125 C 98.828125 -18.65625 102.664062 -15.644531 108.6875 -13.78125 C 110.695312 -13.195312 112.5625 -12.1875 114.28125 -10.75 C 116.007812 -9.320312 116.875 -7.460938 116.875 -5.171875 C 116.875 -1.722656 115.4375 1.144531 112.5625 3.4375 C 109.695312 5.738281 106.613281 6.890625 103.3125 6.890625 C 96.707031 6.890625 91.21875 5.203125 86.84375 1.828125 C 82.46875 -1.546875 78.878906 -5.882812 76.078125 -11.1875 C 73.285156 -16.5 70.957031 -22.097656 69.09375 -27.984375 C 67.226562 -33.867188 65.429688 -39.320312 63.703125 -44.34375 Z M 63.703125 -44.34375 "/></g></g></g></svg>