<svg xmlns="http://www.w3.org/2000/svg" xmlns:xlink="http://www.w3.org/1999/xlink" width="1080" zoomAndPan="magnify" viewBox="0 0 810 809.999993" height="1080" preserveAspectRatio="xMidYMid meet" version="1.0"><defs><g/><clipPath id="2830ac3957"><path d="M 473 218 L 531 218 L 531 241 L 473 241 Z M 473 218 " clip-rule="nonzero"/></clipPath><clipPath id="9eca82502d"><path d="M 613.460938 210.1875 L 490.992188 267.035156 L 435.292969 147.039062 L 557.761719 90.195312 Z M 613.460938 210.1875 " clip-rule="nonzero"/></clipPath><clipPath id="2b70635aac"><path d="M 613.460938 210.1875 L 490.992188 267.035156 L 435.292969 147.039062 L 557.761719 90.195312 Z M 613.460938 210.1875 " clip-rule="nonzero"/></clipPath><clipPath id="7f8a0ac5c7"><path d="M 463 201 L 466 201 L 466 207 L 463 207 Z M 463 201 " clip-rule="nonzero"/></clipPath><clipPath id="5b00c933ad"><path d="M 613.460938 210.1875 L 490.992188 267.035156 L 435.292969 147.039062 L 557.761719 90.195312 Z M 613.460938 210.1875 " clip-rule="nonzero"/></clipPath><clipPath id="4c4148bae0"><path d="M 613.460938 210.1875 L 490.992188 267.035156 L 435.292969 147.039062 L 557.761719 90.195312 Z M 613.460938 210.1875 " clip-rule="nonzero"/></clipPath><clipPath id="bf0574ea73"><path d="M 573 159 L 576 159 L 576 165 L 573 165 Z M 573 159 " clip-rule="nonzero"/></clipPath><clipPath id="fda7fff48d"><path d="M 613.460938 210.1875 L 490.992188 267.035156 L 435.292969 147.039062 L 557.761719 90.195312 Z M 613.460938 210.1875 " clip-rule="nonzero"/></clipPath><clipPath id="163b2d1e23"><path d="M 613.460938 210.1875 L 490.992188 267.035156 L 435.292969 147.039062 L 557.761719 90.195312 Z M 613.460938 210.1875 " clip-rule="nonzero"/></clipPath><clipPath id="9b7185ae7f"><path d="M 536 220 L 560 220 L 560 233 L 536 233 Z M 536 220 " clip-rule="nonzero"/></clipPath><clipPath id="802715174a"><path d="M 613.460938 210.1875 L 490.992188 267.035156 L 435.292969 147.039062 L 557.761719 90.195312 Z M 613.460938 210.1875 " clip-rule="nonzero"/></clipPath><clipPath id="f26c13b3ee"><path d="M 613.460938 210.1875 L 490.992188 267.035156 L 435.292969 147.039062 L 557.761719 90.195312 Z M 613.460938 210.1875 " clip-rule="nonzero"/></clipPath><clipPath id="f1278ca88f"><path d="M 505 228 L 528 228 L 528 233 L 505 233 Z M 505 228 " clip-rule="nonzero"/></clipPath><clipPath id="632e8aab65"><path d="M 613.460938 210.1875 L 490.992188 267.035156 L 435.292969 147.039062 L 557.761719 90.195312 Z M 613.460938 210.1875 " clip-rule="nonzero"/></clipPath><clipPath id="14e1cc5d69"><path d="M 613.460938 210.1875 L 490.992188 267.035156 L 435.292969 147.039062 L 557.761719 90.195312 Z M 613.460938 210.1875 " clip-rule="nonzero"/></clipPath><clipPath id="da53995c0e"><path d="M 529 131 L 538 131 L 538 135 L 529 135 Z M 529 131 " clip-rule="nonzero"/></clipPath><clipPath id="1f2eccfd01"><path d="M 613.460938 210.1875 L 490.992188 267.035156 L 435.292969 147.039062 L 557.761719 90.195312 Z M 613.460938 210.1875 " clip-rule="nonzero"/></clipPath><clipPath id="c977fb544a"><path d="M 613.460938 210.1875 L 490.992188 267.035156 L 435.292969 147.039062 L 557.761719 90.195312 Z M 613.460938 210.1875 " clip-rule="nonzero"/></clipPath><clipPath id="d011ee9136"><path d="M 575 166 L 577 166 L 577 169 L 575 169 Z M 575 166 " clip-rule="nonzero"/></clipPath><clipPath id="4394a8fab9"><path d="M 613.460938 210.1875 L 490.992188 267.035156 L 435.292969 147.039062 L 557.761719 90.195312 Z M 613.460938 210.1875 " clip-rule="nonzero"/></clipPath><clipPath id="1d729e2b9a"><path d="M 613.460938 210.1875 L 490.992188 267.035156 L 435.292969 147.039062 L 557.761719 90.195312 Z M 613.460938 210.1875 " clip-rule="nonzero"/></clipPath><clipPath id="e84aa3f768"><path d="M 536 134 L 541 134 L 541 137 L 536 137 Z M 536 134 " clip-rule="nonzero"/></clipPath><clipPath id="7e67e608c7"><path d="M 613.460938 210.1875 L 490.992188 267.035156 L 435.292969 147.039062 L 557.761719 90.195312 Z M 613.460938 210.1875 " clip-rule="nonzero"/></clipPath><clipPath id="040ffdd2cb"><path d="M 613.460938 210.1875 L 490.992188 267.035156 L 435.292969 147.039062 L 557.761719 90.195312 Z M 613.460938 210.1875 " clip-rule="nonzero"/></clipPath><clipPath id="429b6c7bdf"><path d="M 556 153 L 562 153 L 562 169 L 556 169 Z M 556 153 " clip-rule="nonzero"/></clipPath><clipPath id="e726a7ffa7"><path d="M 613.460938 210.1875 L 490.992188 267.035156 L 435.292969 147.039062 L 557.761719 90.195312 Z M 613.460938 210.1875 " clip-rule="nonzero"/></clipPath><clipPath id="a5beee80c5"><path d="M 613.460938 210.1875 L 490.992188 267.035156 L 435.292969 147.039062 L 557.761719 90.195312 Z M 613.460938 210.1875 " clip-rule="nonzero"/></clipPath><clipPath id="f193fb1e84"><path d="M 458 111 L 592 111 L 592 241 L 458 241 Z M 458 111 " clip-rule="nonzero"/></clipPath><clipPath id="133109e652"><path d="M 613.460938 210.1875 L 490.992188 267.035156 L 435.292969 147.039062 L 557.761719 90.195312 Z M 613.460938 210.1875 " clip-rule="nonzero"/></clipPath><clipPath id="db9f625acb"><path d="M 613.460938 210.1875 L 490.992188 267.035156 L 435.292969 147.039062 L 557.761719 90.195312 Z M 613.460938 210.1875 " clip-rule="nonzero"/></clipPath><clipPath id="19c45b1e83"><path d="M 519 129 L 530 129 L 530 132 L 519 132 Z M 519 129 " clip-rule="nonzero"/></clipPath><clipPath id="d2dbeaffdf"><path d="M 613.460938 210.1875 L 490.992188 267.035156 L 435.292969 147.039062 L 557.761719 90.195312 Z M 613.460938 210.1875 " clip-rule="nonzero"/></clipPath><clipPath id="2659096e06"><path d="M 613.460938 210.1875 L 490.992188 267.035156 L 435.292969 147.039062 L 557.761719 90.195312 Z M 613.460938 210.1875 " clip-rule="nonzero"/></clipPath><clipPath id="87072792c6"><path d="M 553 177 L 562 177 L 562 199 L 553 199 Z M 553 177 " clip-rule="nonzero"/></clipPath><clipPath id="7c6c6290de"><path d="M 613.460938 210.1875 L 490.992188 267.035156 L 435.292969 147.039062 L 557.761719 90.195312 Z M 613.460938 210.1875 " clip-rule="nonzero"/></clipPath><clipPath id="12cda88bb9"><path d="M 613.460938 210.1875 L 490.992188 267.035156 L 435.292969 147.039062 L 557.761719 90.195312 Z M 613.460938 210.1875 " clip-rule="nonzero"/></clipPath><clipPath id="9c6abd6844"><path d="M 536 134 L 537 134 L 537 135 L 536 135 Z M 536 134 " clip-rule="nonzero"/></clipPath><clipPath id="8043f2a8ea"><path d="M 613.460938 210.1875 L 490.992188 267.035156 L 435.292969 147.039062 L 557.761719 90.195312 Z M 613.460938 210.1875 " clip-rule="nonzero"/></clipPath><clipPath id="bbd564ec02"><path d="M 613.460938 210.1875 L 490.992188 267.035156 L 435.292969 147.039062 L 557.761719 90.195312 Z M 613.460938 210.1875 " clip-rule="nonzero"/></clipPath><clipPath id="2c6265ab2c"><path d="M 556 212 L 562 212 L 562 218 L 556 218 Z M 556 212 " clip-rule="nonzero"/></clipPath><clipPath id="a18791ea34"><path d="M 613.460938 210.1875 L 490.992188 267.035156 L 435.292969 147.039062 L 557.761719 90.195312 Z M 613.460938 210.1875 " clip-rule="nonzero"/></clipPath><clipPath id="8a1b9b1965"><path d="M 613.460938 210.1875 L 490.992188 267.035156 L 435.292969 147.039062 L 557.761719 90.195312 Z M 613.460938 210.1875 " clip-rule="nonzero"/></clipPath><clipPath id="126f33e9ff"><path d="M 502 224 L 534 224 L 534 230 L 502 230 Z M 502 224 " clip-rule="nonzero"/></clipPath><clipPath id="06a3d24d0e"><path d="M 613.460938 210.1875 L 490.992188 267.035156 L 435.292969 147.039062 L 557.761719 90.195312 Z M 613.460938 210.1875 " clip-rule="nonzero"/></clipPath><clipPath id="0453bfbd6d"><path d="M 613.460938 210.1875 L 490.992188 267.035156 L 435.292969 147.039062 L 557.761719 90.195312 Z M 613.460938 210.1875 " clip-rule="nonzero"/></clipPath><clipPath id="d93964fabd"><path d="M 543 205 L 548 205 L 548 208 L 543 208 Z M 543 205 " clip-rule="nonzero"/></clipPath><clipPath id="f6f0de64d0"><path d="M 613.460938 210.1875 L 490.992188 267.035156 L 435.292969 147.039062 L 557.761719 90.195312 Z M 613.460938 210.1875 " clip-rule="nonzero"/></clipPath><clipPath id="ac765327f7"><path d="M 613.460938 210.1875 L 490.992188 267.035156 L 435.292969 147.039062 L 557.761719 90.195312 Z M 613.460938 210.1875 " clip-rule="nonzero"/></clipPath><clipPath id="81390cd958"><path d="M 568 198 L 570 198 L 570 202 L 568 202 Z M 568 198 " clip-rule="nonzero"/></clipPath><clipPath id="66a04500fc"><path d="M 613.460938 210.1875 L 490.992188 267.035156 L 435.292969 147.039062 L 557.761719 90.195312 Z M 613.460938 210.1875 " clip-rule="nonzero"/></clipPath><clipPath id="01ea264e0d"><path d="M 613.460938 210.1875 L 490.992188 267.035156 L 435.292969 147.039062 L 557.761719 90.195312 Z M 613.460938 210.1875 " clip-rule="nonzero"/></clipPath><clipPath id="4523726d79"><path d="M 532 211 L 537 211 L 537 213 L 532 213 Z M 532 211 " clip-rule="nonzero"/></clipPath><clipPath id="257e863e06"><path d="M 613.460938 210.1875 L 490.992188 267.035156 L 435.292969 147.039062 L 557.761719 90.195312 Z M 613.460938 210.1875 " clip-rule="nonzero"/></clipPath><clipPath id="431f8dccfd"><path d="M 613.460938 210.1875 L 490.992188 267.035156 L 435.292969 147.039062 L 557.761719 90.195312 Z M 613.460938 210.1875 " clip-rule="nonzero"/></clipPath><clipPath id="54a1699e23"><path d="M 512 213 L 518 213 L 518 215 L 512 215 Z M 512 213 " clip-rule="nonzero"/></clipPath><clipPath id="3dc5285f64"><path d="M 613.460938 210.1875 L 490.992188 267.035156 L 435.292969 147.039062 L 557.761719 90.195312 Z M 613.460938 210.1875 " clip-rule="nonzero"/></clipPath><clipPath id="843e808f91"><path d="M 613.460938 210.1875 L 490.992188 267.035156 L 435.292969 147.039062 L 557.761719 90.195312 Z M 613.460938 210.1875 " clip-rule="nonzero"/></clipPath></defs><g clip-path="url(#2830ac3957)"><g clip-path="url(#9eca82502d)"><g clip-path="url(#2b70635aac)"><path fill="#f6e8e1" d="M 513.792969 239.074219 C 506.976562 238.609375 500.1875 236.914062 494.007812 234.183594 C 490.910156 232.839844 487.945312 231.265625 485.179688 229.484375 C 482.417969 227.703125 479.792969 225.800781 477.417969 223.730469 C 481.257812 227 485.453125 229.832031 489.914062 232.128906 C 486.574219 230.398438 483.675781 228.449219 480.980469 226.238281 C 478.289062 224.027344 475.804688 221.527344 473.4375 218.539062 C 473.960938 218.832031 474.539062 219.296875 475.132812 219.828125 C 475.734375 220.351562 476.382812 220.917969 477.007812 221.464844 C 477.621094 222.019531 478.253906 222.5 478.8125 222.855469 C 479.371094 223.21875 479.863281 223.449219 480.238281 223.457031 C 487.121094 229.152344 495.066406 233.585938 503.613281 236.394531 C 512.144531 239.21875 521.3125 240.324219 530.3125 239.488281 C 526.917969 241.09375 523.878906 241.089844 521.238281 240.609375 C 518.574219 240.175781 516.273438 239.269531 513.792969 239.074219 " fill-opacity="1" fill-rule="nonzero"/></g></g></g><g clip-path="url(#7f8a0ac5c7)"><g clip-path="url(#5b00c933ad)"><g clip-path="url(#4c4148bae0)"><path fill="#f6e8e1" d="M 463.226562 201.425781 C 463.632812 202.222656 464.035156 203.011719 464.433594 203.792969 C 464.820312 204.578125 465.28125 205.316406 465.695312 206.074219 C 464.679688 204.535156 463.828125 202.929688 463.226562 201.425781 " fill-opacity="1" fill-rule="nonzero"/></g></g></g><g clip-path="url(#bf0574ea73)"><g clip-path="url(#fda7fff48d)"><g clip-path="url(#163b2d1e23)"><path fill="#f6e8e1" d="M 575.171875 164.121094 C 574.695312 162.378906 574.144531 160.660156 573.625 159 C 574.335938 160.617188 574.789062 162.363281 575.171875 164.121094 " fill-opacity="1" fill-rule="nonzero"/></g></g></g><g clip-path="url(#9b7185ae7f)"><g clip-path="url(#802715174a)"><g clip-path="url(#f26c13b3ee)"><path fill="#f6e8e1" d="M 536.183594 232.097656 C 537.117188 231.691406 538.03125 231.226562 538.976562 230.820312 C 546.316406 228.648438 553.417969 225.074219 559.707031 220.085938 C 556.332031 222.832031 552.707031 225.539062 548.75 227.714844 C 544.804688 229.886719 540.511719 231.5 536.183594 232.097656 " fill-opacity="1" fill-rule="nonzero"/></g></g></g><g clip-path="url(#f1278ca88f)"><g clip-path="url(#632e8aab65)"><g clip-path="url(#14e1cc5d69)"><path fill="#f6e8e1" d="M 527.746094 231.71875 C 523.980469 232.242188 520.113281 232.261719 516.375 231.773438 C 512.636719 231.289062 509.027344 230.296875 505.753906 228.894531 C 512.355469 231.507812 520.058594 232.527344 527.746094 231.71875 " fill-opacity="1" fill-rule="nonzero"/></g></g></g><g clip-path="url(#da53995c0e)"><g clip-path="url(#1f2eccfd01)"><g clip-path="url(#c977fb544a)"><path fill="#f6e8e1" d="M 537.304688 133.730469 C 537.253906 133.914062 537.097656 134.003906 536.898438 134.054688 C 536.71875 134.035156 536.546875 134.046875 536.386719 134.101562 C 534.292969 133.03125 532.109375 132.089844 529.847656 131.332031 C 530.4375 131.375 531.054688 131.160156 531.652344 131.285156 C 532.277344 131.511719 532.753906 131.785156 533.175781 132.011719 C 533.59375 132.242188 533.949219 132.464844 534.3125 132.691406 C 534.679688 132.910156 535.058594 133.105469 535.535156 133.265625 C 536.011719 133.425781 536.5625 133.609375 537.304688 133.730469 " fill-opacity="1" fill-rule="nonzero"/></g></g></g><g clip-path="url(#d011ee9136)"><g clip-path="url(#4394a8fab9)"><g clip-path="url(#1d729e2b9a)"><path fill="#f6e8e1" d="M 575.582031 166.085938 C 575.621094 166.140625 575.667969 166.195312 575.710938 166.253906 C 575.855469 166.859375 576.007812 167.453125 576.105469 168.054688 C 576.09375 168.132812 576.085938 168.199219 576.074219 168.28125 C 575.910156 167.554688 575.746094 166.820312 575.582031 166.085938 " fill-opacity="1" fill-rule="nonzero"/></g></g></g><g clip-path="url(#e84aa3f768)"><g clip-path="url(#7e67e608c7)"><g clip-path="url(#040ffdd2cb)"><path fill="#f6e8e1" d="M 540.019531 135.054688 C 539.90625 135.390625 539.796875 135.730469 539.851562 136.070312 C 539.304688 135.699219 538.722656 135.394531 538.15625 135.058594 C 537.589844 134.710938 537 134.417969 536.414062 134.113281 C 536.585938 134.101562 536.757812 134.089844 536.898438 134.054688 C 537.128906 134.074219 537.371094 134.144531 537.625 134.234375 C 537.878906 134.335938 538.132812 134.464844 538.398438 134.582031 C 538.921875 134.832031 539.484375 135.023438 540.019531 135.054688 " fill-opacity="1" fill-rule="nonzero"/></g></g></g><g clip-path="url(#429b6c7bdf)"><g clip-path="url(#e726a7ffa7)"><g clip-path="url(#a5beee80c5)"><path fill="#f6e8e1" d="M 558.28125 157.523438 C 558.609375 158.253906 559.558594 158.632812 559.882812 158.921875 C 560.21875 161.074219 560.433594 163.191406 560.710938 165.613281 C 560.957031 165.941406 561.152344 166.710938 561.65625 167.386719 C 561.441406 167.882812 561.273438 168.398438 561.140625 168.925781 C 560.476562 163.679688 558.800781 158.382812 556.09375 153.375 C 556.507812 154.011719 556.882812 154.6875 557.277344 155.359375 C 557.617188 156.066406 557.972656 156.777344 558.28125 157.523438 " fill-opacity="1" fill-rule="nonzero"/></g></g></g><g clip-path="url(#f193fb1e84)"><g clip-path="url(#133109e652)"><g clip-path="url(#db9f625acb)"><path fill="#f6e8e1" d="M 473.363281 195.269531 C 472.328125 193.289062 471.597656 191.078125 471 188.804688 C 470.4375 186.519531 470.070312 184.15625 469.816406 181.800781 C 469.355469 177.070312 469.34375 172.425781 469.007812 167.972656 C 468.378906 170.480469 467.917969 173.304688 467.761719 176.152344 C 467.585938 179 467.640625 181.859375 467.777344 184.464844 C 468.101562 189.667969 468.785156 193.84375 467.644531 195.183594 C 467.066406 195.855469 466.425781 195.292969 465.722656 193.910156 C 465.390625 193.214844 465.082031 192.304688 464.757812 191.257812 C 464.472656 190.203125 464.195312 188.996094 463.972656 187.699219 C 463.519531 185.101562 463.324219 182.140625 463.277344 179.300781 C 463.246094 176.453125 463.425781 173.730469 463.5 171.523438 C 463.125 172.683594 463.125 172.683594 462.753906 173.847656 C 463.140625 172.671875 463.460938 171.523438 463.210938 170.457031 C 462.984375 171.027344 462.792969 171.746094 462.601562 172.527344 C 462.402344 173.304688 462.195312 174.144531 462.039062 174.957031 C 461.871094 175.769531 461.660156 176.558594 461.492188 177.234375 C 461.320312 177.90625 461.125 178.46875 460.890625 178.824219 C 460.605469 178.117188 460.304688 177.398438 460.042969 176.671875 C 458.972656 179.859375 458.71875 184.605469 459.140625 189.371094 C 459.542969 194.148438 460.601562 198.882812 460.980469 202.46875 C 459.183594 194.140625 458.113281 185.238281 458.703125 176.085938 C 458.992188 171.519531 459.664062 166.902344 460.777344 162.328125 C 461.917969 157.757812 463.511719 153.234375 465.566406 148.867188 C 467.628906 144.507812 470.210938 140.335938 473.214844 136.453125 C 476.222656 132.574219 479.734375 129.046875 483.578125 125.949219 C 487.421875 122.839844 491.671875 120.257812 496.101562 118.1875 C 500.539062 116.128906 505.195312 114.570312 509.910156 113.691406 C 515.144531 112.53125 520.453125 111.890625 525.730469 111.898438 C 528.371094 111.855469 530.996094 112.046875 533.613281 112.28125 C 536.214844 112.585938 538.820312 112.953125 541.367188 113.527344 C 543.9375 114.050781 546.445312 114.785156 548.941406 115.570312 C 551.40625 116.421875 553.863281 117.332031 556.230469 118.4375 C 560.980469 120.609375 565.53125 123.257812 569.703125 126.429688 C 571.199219 127.695312 573.558594 130.089844 575.734375 133.085938 C 577.9375 136.050781 579.992188 139.546875 581.457031 142.566406 C 584.4375 147.695312 586.808594 153.214844 588.527344 158.988281 C 588.914062 160.4375 589.363281 161.882812 589.671875 163.359375 L 590.171875 165.570312 L 590.585938 167.800781 L 590.789062 168.917969 L 590.953125 170.042969 L 591.269531 172.300781 L 591.503906 174.566406 C 591.589844 175.324219 591.65625 176.085938 591.695312 176.84375 C 591.8125 180.085938 591.558594 183.320312 591.148438 186.523438 C 590.699219 189.722656 589.988281 192.878906 589.074219 195.976562 C 587.179688 202.148438 584.402344 208.058594 580.78125 213.472656 C 573.582031 224.324219 563.199219 233.265625 550.820312 239.265625 C 549.582031 239.855469 548.128906 240.289062 546.859375 240.503906 C 545.574219 240.6875 544.480469 240.671875 543.933594 240.417969 C 543.386719 240.164062 543.382812 239.675781 544.246094 238.921875 C 544.671875 238.539062 545.324219 238.105469 546.214844 237.5625 C 547.089844 236.992188 548.238281 236.382812 549.628906 235.582031 C 554.1875 232.820312 558.488281 229.679688 562.453125 226.171875 C 566.410156 222.652344 570 218.742188 573.1875 214.535156 C 573.191406 214.921875 572.972656 215.441406 572.621094 216.039062 C 572.445312 216.335938 572.238281 216.65625 572.011719 216.984375 C 571.773438 217.308594 571.515625 217.636719 571.246094 217.972656 C 570.199219 219.34375 568.933594 220.710938 568.363281 221.820312 C 571.355469 219.207031 573.816406 216.488281 575.996094 213.585938 C 578.164062 210.679688 580.054688 207.570312 581.699219 204.011719 C 579.503906 208.761719 576.765625 213.257812 573.542969 217.410156 C 577.570312 212.230469 581.136719 206.246094 583.640625 199.664062 C 586.195312 193.109375 587.636719 185.960938 587.820312 178.84375 C 587.902344 176.246094 588.703125 173.8125 589.015625 171.019531 C 589.375 168.25 589.210938 165.097656 587.433594 161.636719 C 588.089844 166.289062 588.25 171.023438 587.929688 175.71875 C 587.601562 180.410156 586.785156 185.0625 585.539062 189.574219 C 583.03125 198.609375 578.808594 207.101562 573.1875 214.535156 C 573.191406 214.492188 573.199219 214.449219 573.191406 214.417969 C 570.746094 217.773438 568.0625 220.722656 565.160156 223.363281 C 562.257812 226.003906 559.144531 228.359375 555.769531 230.511719 C 556.273438 230.144531 556.792969 229.796875 557.285156 229.417969 C 557.78125 229.039062 558.273438 228.660156 558.757812 228.289062 C 559.742188 227.574219 560.65625 226.824219 561.574219 226.21875 L 559.757812 227.433594 L 557.90625 228.578125 C 556.6875 229.359375 555.398438 230.015625 554.152344 230.730469 C 551.601562 232.050781 549.039062 233.300781 546.386719 234.324219 C 543.761719 235.402344 541.050781 236.253906 538.324219 237.011719 C 536.945312 237.339844 535.582031 237.71875 534.1875 237.964844 C 533.492188 238.09375 532.800781 238.238281 532.105469 238.355469 L 530.007812 238.660156 C 537.773438 236.695312 545.289062 233.585938 552.15625 229.292969 C 559.03125 225.011719 565.257812 219.496094 570.242188 212.988281 C 575.234375 206.5 578.980469 199.03125 581.09375 191.195312 C 583.214844 183.367188 583.683594 175.175781 582.453125 167.476562 C 582.179688 171.902344 582.429688 176.902344 581.984375 181.816406 C 581.546875 186.699219 580.421875 191.449219 578.265625 194.660156 C 579.398438 191.359375 580.273438 187.964844 580.867188 184.511719 C 581.449219 181.054688 581.75 177.539062 581.761719 174.003906 C 581.792969 166.9375 580.652344 159.777344 578.253906 152.9375 C 578.738281 153.902344 579.230469 154.84375 579.699219 155.804688 C 578.847656 151.316406 576.957031 146.929688 574.515625 142.902344 C 572.070312 138.859375 569.066406 135.203125 566.03125 131.8125 C 565.484375 131.203125 564.96875 130.578125 564.386719 129.996094 C 564.953125 130.574219 565.476562 131.210938 566.03125 131.8125 C 571.554688 138.128906 575.636719 145.382812 578.253906 152.9375 C 576.59375 149.644531 574.960938 146.152344 572.664062 142.105469 C 573.078125 143.328125 573.601562 144.78125 574.242188 146.3125 C 574.820312 147.875 575.496094 149.527344 576.039062 151.226562 C 577.828125 155.53125 579.128906 160.050781 579.796875 164.617188 C 578.492188 157.59375 575.566406 151.039062 571.769531 145.949219 C 573.789062 150.230469 575.503906 154.695312 576.613281 159.324219 C 577.726562 163.941406 578.367188 168.683594 578.273438 173.359375 C 578.132812 170.796875 577.875 168.246094 577.382812 165.738281 C 576.941406 163.222656 576.277344 160.753906 575.5 158.332031 C 573.328125 150.082031 569.28125 142.152344 563.453125 135.507812 C 563.707031 135.730469 563.933594 135.980469 564.171875 136.21875 C 563.734375 135.707031 563.25 135.242188 562.78125 134.765625 C 560.460938 132.210938 557.882812 129.855469 555.085938 127.757812 C 552.527344 125.929688 549.660156 124.679688 546.769531 123.742188 C 546.308594 123.515625 545.851562 123.292969 545.398438 123.066406 C 546.382812 123.238281 546.964844 123.160156 545.332031 122.199219 C 541.875 120.078125 537.785156 118.808594 533.523438 117.957031 C 532.460938 117.714844 531.371094 117.578125 530.285156 117.378906 C 529.191406 117.199219 528.085938 117.078125 526.976562 116.902344 C 524.734375 116.632812 522.457031 116.359375 520.144531 116.082031 C 517.695312 115.75 514.359375 116.136719 510.898438 116.988281 C 509.90625 116.902344 509.429688 117.160156 509.035156 117.476562 C 508.300781 117.699219 507.546875 117.886719 506.816406 118.132812 C 505.914062 118.394531 505 118.628906 504.113281 118.929688 C 503.230469 119.25 502.355469 119.578125 501.523438 119.980469 C 502.382812 119.671875 503.257812 119.367188 504.132812 119.035156 C 505.015625 118.722656 505.917969 118.441406 506.816406 118.132812 C 507.496094 117.9375 508.183594 117.800781 508.859375 117.617188 C 508.441406 117.976562 508.011719 118.359375 507.015625 118.621094 C 513.285156 117.238281 519.886719 116.851562 526.410156 117.644531 C 532.9375 118.421875 539.371094 120.273438 545.398438 123.066406 C 544.566406 122.964844 543.445312 122.730469 542.957031 122.691406 C 544.230469 123.003906 545.515625 123.316406 546.769531 123.742188 C 550.617188 125.644531 554.292969 127.921875 557.710938 130.570312 C 556.617188 129.871094 555.5 129.359375 554.46875 129.015625 C 559.28125 132.707031 563.628906 137.050781 567.175781 142.019531 C 568.964844 144.492188 570.582031 147.097656 571.953125 149.835938 C 573.328125 152.570312 574.570312 155.394531 575.5 158.332031 C 578.4375 169.53125 577.769531 181.3125 574.058594 191.832031 C 576.71875 186.371094 578.207031 179.953125 578.273438 173.359375 C 578.46875 177.730469 578.160156 182.140625 577.347656 186.464844 C 576.519531 190.785156 575.152344 195.003906 573.320312 199.007812 C 569.679688 207.03125 563.9375 214.078125 556.929688 219.242188 C 557.359375 218.523438 557.835938 217.769531 558.324219 217.023438 C 558.8125 216.269531 559.261719 215.464844 559.691406 214.714844 C 560.128906 213.972656 560.460938 213.183594 560.738281 212.488281 C 560.875 212.132812 560.988281 211.796875 561.074219 211.472656 C 561.148438 211.140625 561.199219 210.828125 561.214844 210.535156 C 561.066406 210.441406 560.726562 210.613281 560.332031 210.871094 C 559.921875 211.117188 559.449219 211.457031 559.054688 211.726562 C 558.265625 212.269531 557.78125 212.539062 558.667969 211.3125 C 559.457031 210.175781 560.148438 209.046875 560.855469 208.003906 C 561.507812 206.921875 562.199219 205.9375 562.769531 204.933594 C 563.988281 202.980469 564.960938 201.113281 565.761719 199.398438 C 567.3125 195.941406 567.878906 192.882812 566.675781 190.308594 C 566.488281 190.039062 565.894531 190.4375 565.140625 191.085938 C 564.738281 191.402344 564.292969 191.78125 563.832031 192.175781 C 563.605469 192.367188 563.371094 192.570312 563.132812 192.769531 C 562.886719 192.960938 562.640625 193.152344 562.398438 193.339844 C 561.910156 193.707031 561.449219 194.050781 561.011719 194.324219 C 560.566406 194.589844 560.167969 194.792969 559.847656 194.898438 C 559.203125 195.113281 558.863281 194.945312 559.058594 194.140625 C 559.972656 191.582031 561.527344 186.996094 562.113281 181.914062 C 562.320312 181.199219 562.410156 180.453125 562.558594 179.703125 C 562.679688 178.945312 562.742188 178.171875 562.832031 177.382812 C 562.914062 177.1875 562.703125 176.84375 562.472656 176.417969 C 562.5 173.671875 562.269531 171.011719 561.929688 168.695312 C 561.617188 166.371094 561.121094 164.40625 560.851562 162.976562 C 560.730469 162.449219 560.609375 161.921875 560.488281 161.398438 C 560.375 160.871094 560.191406 160.367188 560.050781 159.84375 C 560.0625 159.238281 560.144531 158.683594 560.3125 158.199219 C 559.773438 157.675781 559.355469 157.109375 558.914062 156.5625 C 557.839844 153.859375 556.46875 151.304688 554.84375 148.949219 C 554.144531 147.488281 553.421875 145.992188 552.507812 144.640625 C 552.355469 144.835938 552.289062 145.246094 551.902344 145.195312 C 550.734375 143.824219 549.410156 142.605469 548.082031 141.402344 C 546.695312 140.261719 545.292969 139.136719 543.773438 138.179688 C 543.25 137.636719 542.738281 137.125 542.265625 136.589844 C 542.03125 136.320312 541.808594 136.039062 541.589844 135.761719 C 541.371094 135.492188 541.160156 135.214844 540.960938 134.929688 C 538.675781 134.972656 535.664062 133.863281 532.257812 132.890625 C 528.875 131.871094 525.0625 131.121094 521.90625 131.183594 L 521.914062 131.265625 C 518.757812 131.136719 515.5625 131.324219 512.386719 131.898438 C 511.824219 131.804688 511.273438 131.664062 510.738281 131.484375 C 510.027344 132.011719 509.226562 132.277344 508.882812 132.542969 C 506.324219 132.976562 504.085938 133.308594 501.828125 133.816406 C 501.519531 134.144531 501.152344 135.148438 500.394531 135.535156 C 499.601562 135.875 498.882812 136.316406 498.148438 136.707031 C 497.4375 137.136719 496.761719 137.601562 496.089844 138.046875 C 494.496094 139.066406 492.871094 140.101562 491.359375 141.332031 C 486.160156 145.332031 481.816406 150.421875 478.566406 156.222656 C 478.222656 156.304688 477.882812 156.214844 477.539062 156.125 C 477.515625 156.6875 477.332031 157.289062 477.097656 157.855469 C 476.984375 158.140625 476.867188 158.421875 476.769531 158.6875 C 476.679688 158.960938 476.621094 159.222656 476.605469 159.464844 C 476.550781 159.257812 476.453125 159.101562 476.269531 159.066406 C 476.164062 159.851562 476.007812 160.449219 475.847656 160.953125 C 475.699219 161.464844 475.519531 161.882812 475.3125 162.28125 C 475.097656 162.675781 474.871094 163.0625 474.660156 163.523438 C 474.441406 163.984375 474.195312 164.503906 473.976562 165.175781 C 473.875 165.808594 474.109375 166.453125 474.097656 167.078125 C 474 167.371094 473.941406 167.675781 473.863281 167.976562 C 473.378906 168.703125 472.976562 169.464844 472.757812 170.257812 C 472.519531 171.046875 472.34375 171.855469 472.296875 172.683594 C 472.265625 173.097656 472.242188 173.519531 472.226562 173.9375 C 472.210938 174.359375 472.238281 174.785156 472.25 175.214844 C 472.261719 175.644531 472.273438 176.082031 472.285156 176.519531 C 472.320312 176.957031 472.351562 177.398438 472.371094 177.851562 C 472.203125 181.460938 472.40625 185.144531 473.078125 188.792969 C 473.382812 190.226562 473.371094 191.300781 473.363281 192.28125 C 473.339844 192.78125 473.316406 193.253906 473.292969 193.738281 C 473.285156 194.226562 473.304688 194.722656 473.363281 195.269531 " fill-opacity="1" fill-rule="nonzero"/></g></g></g><g clip-path="url(#19c45b1e83)"><g clip-path="url(#d2dbeaffdf)"><g clip-path="url(#2659096e06)"><path fill="#f6e8e1" d="M 529.015625 131.078125 C 526.035156 130.144531 522.9375 129.503906 519.773438 129.1875 C 520.199219 129.1875 520.617188 129.179688 521.035156 129.167969 C 521.445312 129.15625 521.855469 129.179688 522.261719 129.179688 C 522.667969 129.1875 523.070312 129.191406 523.46875 129.210938 C 523.863281 129.246094 524.257812 129.285156 524.648438 129.335938 C 525.425781 129.421875 526.183594 129.613281 526.917969 129.890625 C 527.65625 130.144531 528.355469 130.558594 529.015625 131.078125 " fill-opacity="1" fill-rule="nonzero"/></g></g></g><g clip-path="url(#87072792c6)"><g clip-path="url(#7c6c6290de)"><g clip-path="url(#12cda88bb9)"><path fill="#f6e8e1" d="M 557.148438 195.609375 C 556.578125 195.949219 556.046875 196.339844 555.492188 196.738281 C 554.949219 197.148438 554.449219 197.605469 553.910156 198.0625 C 558.121094 192.222656 560.726562 185.195312 561.328125 177.871094 L 561.410156 177.871094 C 561.335938 180.828125 560.464844 184.375 559.363281 187.5 C 558.300781 190.652344 557.148438 193.429688 557.148438 195.609375 " fill-opacity="1" fill-rule="nonzero"/></g></g></g><g clip-path="url(#9c6abd6844)"><g clip-path="url(#8043f2a8ea)"><g clip-path="url(#bbd564ec02)"><path fill="#f6e8e1" d="M 536.898438 134.054688 C 536.757812 134.089844 536.585938 134.101562 536.414062 134.113281 C 536.40625 134.109375 536.398438 134.105469 536.386719 134.101562 C 536.546875 134.046875 536.71875 134.035156 536.898438 134.054688 " fill-opacity="1" fill-rule="nonzero"/></g></g></g><g clip-path="url(#2c6265ab2c)"><g clip-path="url(#a18791ea34)"><g clip-path="url(#8a1b9b1965)"><path fill="#f6e8e1" d="M 556.902344 216.707031 C 556.65625 216.910156 556.414062 217.109375 556.167969 217.308594 C 557.03125 216.464844 557.898438 215.632812 558.707031 214.738281 C 559.546875 213.882812 560.316406 212.953125 561.105469 212.050781 C 560 213.632812 558.550781 215.238281 556.902344 216.707031 " fill-opacity="1" fill-rule="nonzero"/></g></g></g><g clip-path="url(#126f33e9ff)"><g clip-path="url(#06a3d24d0e)"><g clip-path="url(#0453bfbd6d)"><path fill="#f6e8e1" d="M 533.898438 227.765625 C 533.320312 227.945312 532.730469 228.089844 532.136719 228.222656 C 531.546875 228.363281 530.957031 228.511719 530.363281 228.636719 C 529.167969 228.847656 527.980469 229.117188 526.769531 229.253906 C 524.359375 229.621094 521.917969 229.742188 519.476562 229.777344 C 513.207031 229.402344 507.15625 227.699219 502.097656 224.894531 C 511.941406 228.882812 523.109375 230.058594 533.898438 227.765625 " fill-opacity="1" fill-rule="nonzero"/></g></g></g><g clip-path="url(#d93964fabd)"><g clip-path="url(#f6f0de64d0)"><g clip-path="url(#ac765327f7)"><path fill="#f6e8e1" d="M 547.511719 205.992188 C 547.179688 206.179688 546.851562 206.378906 546.507812 206.550781 C 546.160156 206.714844 545.808594 206.878906 545.460938 207.042969 C 544.777344 207.386719 544.039062 207.648438 543.335938 207.945312 C 543.964844 207.535156 544.613281 207.15625 545.203125 206.703125 L 546.113281 206.054688 C 546.410156 205.832031 546.695312 205.589844 546.984375 205.359375 C 546.929688 205.730469 547.328125 205.824219 547.511719 205.992188 " fill-opacity="1" fill-rule="nonzero"/></g></g></g><g clip-path="url(#81390cd958)"><g clip-path="url(#66a04500fc)"><g clip-path="url(#01ea264e0d)"><path fill="#f6e8e1" d="M 568.765625 200.636719 C 568.53125 201.0625 568.296875 201.488281 568.066406 201.910156 C 568.519531 200.738281 568.851562 199.511719 569.203125 198.316406 C 569.148438 198.785156 568.886719 199.847656 568.765625 200.636719 " fill-opacity="1" fill-rule="nonzero"/></g></g></g><g clip-path="url(#4523726d79)"><g clip-path="url(#257e863e06)"><g clip-path="url(#431f8dccfd)"><path fill="#f6e8e1" d="M 532.898438 212.324219 C 533.429688 212.21875 533.945312 212.050781 534.464844 211.902344 C 534.988281 211.75 535.511719 211.605469 536.015625 211.410156 C 535.484375 211.816406 534.953125 212.195312 534.441406 212.6875 C 533.984375 212.476562 533.464844 212.382812 532.898438 212.324219 " fill-opacity="1" fill-rule="nonzero"/></g></g></g><g clip-path="url(#54a1699e23)"><g clip-path="url(#3dc5285f64)"><g clip-path="url(#843e808f91)"><path fill="#f6e8e1" d="M 516.390625 214.179688 C 515.65625 214.074219 514.933594 213.957031 514.230469 213.828125 C 513.535156 213.652344 512.84375 213.523438 512.1875 213.308594 C 513.871094 213.570312 515.601562 213.800781 517.308594 213.859375 C 516.902344 214.074219 516.566406 214.269531 516.390625 214.179688 " fill-opacity="1" fill-rule="nonzero"/></g></g></g><g fill="#f6e8e1" fill-opacity="1"><g transform="translate(196.562707, 229.231872)"><g><path d="M 84.15625 -62.421875 C 84.15625 -58.109375 83.039062 -54.375 80.8125 -51.21875 C 78.59375 -48.0625 75.941406 -45.226562 72.859375 -42.71875 C 69.773438 -40.207031 66.867188 -37.800781 64.140625 -35.5 C 61.410156 -33.207031 59.472656 -30.703125 58.328125 -27.984375 C 58.328125 -27.835938 58.289062 -27.726562 58.21875 -27.65625 C 58.144531 -27.582031 58.109375 -27.472656 58.109375 -27.328125 C 58.109375 -26.472656 59.039062 -25.9375 60.90625 -25.71875 C 62.769531 -25.5 65.101562 -25.316406 67.90625 -25.171875 C 70.707031 -25.035156 73.539062 -24.644531 76.40625 -24 C 79.28125 -23.351562 81.648438 -22.164062 83.515625 -20.4375 C 85.378906 -18.71875 86.3125 -16.207031 86.3125 -12.90625 C 86.3125 -9.46875 85.410156 -6.3125 83.609375 -3.4375 C 81.816406 -0.570312 77.625 0.859375 71.03125 0.859375 C 66.582031 0.859375 61.34375 0.710938 55.3125 0.421875 C 49.289062 0.140625 43.300781 -0.25 37.34375 -0.75 C 31.382812 -1.25 26.179688 -1.71875 21.734375 -2.15625 C 17.285156 -2.582031 13.878906 -4.125 11.515625 -6.78125 C 9.148438 -9.4375 7.96875 -12.34375 7.96875 -15.5 C 7.96875 -19.65625 9.6875 -23.097656 13.125 -25.828125 C 18.582031 -30.273438 23.390625 -34.472656 27.546875 -38.421875 C 31.710938 -42.367188 35.015625 -45.738281 37.453125 -48.53125 C 39.890625 -51.332031 41.109375 -53.164062 41.109375 -54.03125 C 41.109375 -55.175781 40.460938 -55.890625 39.171875 -56.171875 C 37.878906 -56.460938 36.226562 -56.609375 34.21875 -56.609375 C 32.644531 -56.609375 30.925781 -56.570312 29.0625 -56.5 C 27.195312 -56.425781 25.257812 -56.390625 23.25 -56.390625 C 17.9375 -56.390625 13.445312 -57.25 9.78125 -58.96875 C 6.125 -60.695312 4.296875 -64.789062 4.296875 -71.25 C 4.296875 -75.40625 5.476562 -78.414062 7.84375 -80.28125 C 10.21875 -82.144531 13.914062 -83.289062 18.9375 -83.71875 C 23.957031 -84.15625 30.414062 -84.375 38.3125 -84.375 C 43.625 -84.375 48.96875 -84.117188 54.34375 -83.609375 C 59.726562 -83.109375 64.679688 -82.101562 69.203125 -80.59375 C 73.722656 -79.09375 77.34375 -76.867188 80.0625 -73.921875 C 82.789062 -70.984375 84.15625 -67.148438 84.15625 -62.421875 Z M 84.15625 -62.421875 "/></g></g></g><g fill="#f6e8e1" fill-opacity="1"><g transform="translate(289.313029, 229.231872)"><g><path d="M 93.625 -32.71875 C 94.769531 -30.851562 96.347656 -29.597656 98.359375 -28.953125 C 100.367188 -28.304688 102.59375 -27.910156 105.03125 -27.765625 C 107.46875 -27.617188 109.796875 -27.332031 112.015625 -26.90625 C 114.242188 -26.476562 116.078125 -25.507812 117.515625 -24 C 118.953125 -22.488281 119.671875 -20.082031 119.671875 -16.78125 C 119.671875 -12.476562 118.414062 -8.960938 115.90625 -6.234375 C 113.394531 -3.515625 110.238281 -1.472656 106.4375 -0.109375 C 102.632812 1.253906 98.613281 2.1875 94.375 2.6875 C 90.144531 3.1875 86.304688 3.4375 82.859375 3.4375 C 77.554688 3.4375 72.390625 2.503906 67.359375 0.640625 C 62.335938 -1.222656 57.601562 -4.453125 53.15625 -9.046875 C 50.4375 -11.910156 47.785156 -14.023438 45.203125 -15.390625 C 42.617188 -16.753906 39.820312 -17.4375 36.8125 -17.4375 C 34.65625 -17.4375 32.285156 -17.003906 29.703125 -16.140625 C 27.117188 -15.273438 24.609375 -14.84375 22.171875 -14.84375 C 19.015625 -14.84375 15.710938 -15.847656 12.265625 -17.859375 C 8.828125 -19.867188 5.921875 -22.453125 3.546875 -25.609375 C 1.179688 -28.765625 0 -31.992188 0 -35.296875 C 0 -40.035156 1.679688 -44.125 5.046875 -47.5625 C 8.421875 -51.007812 12.191406 -52.734375 16.359375 -52.734375 C 17.222656 -52.734375 18.117188 -52.695312 19.046875 -52.625 C 19.984375 -52.550781 20.804688 -52.515625 21.515625 -52.515625 C 26.398438 -52.515625 30.203125 -53.84375 32.921875 -56.5 C 35.648438 -59.15625 38.378906 -62.5625 41.109375 -66.71875 C 43.546875 -71.457031 47.023438 -75.546875 51.546875 -78.984375 C 56.066406 -82.429688 61.125 -85.085938 66.71875 -86.953125 C 72.3125 -88.816406 77.765625 -89.75 83.078125 -89.75 C 89.390625 -89.75 94.335938 -88.0625 97.921875 -84.6875 C 101.515625 -81.320312 104.0625 -77.160156 105.5625 -72.203125 C 107.070312 -67.253906 107.828125 -62.484375 107.828125 -57.890625 C 107.828125 -55.453125 107.429688 -53.015625 106.640625 -50.578125 C 105.859375 -48.140625 104.390625 -45.703125 102.234375 -43.265625 C 100.796875 -41.679688 99 -40.316406 96.84375 -39.171875 C 94.695312 -38.023438 93.625 -35.875 93.625 -32.71875 Z M 93.625 -32.71875 "/></g></g></g><g fill="#f6e8e1" fill-opacity="1"><g transform="translate(415.419027, 229.231872)"><g><path d="M 63.703125 -44.34375 C 59.117188 -42.332031 55.460938 -39.140625 52.734375 -34.765625 C 50.003906 -30.390625 47.78125 -25.546875 46.0625 -20.234375 C 44.34375 -14.921875 42.617188 -9.820312 40.890625 -4.9375 C 39.171875 -0.0625 36.984375 3.953125 34.328125 7.109375 C 31.671875 10.265625 28.117188 11.84375 23.671875 11.84375 C 19.367188 11.84375 15.960938 10.726562 13.453125 8.5 C 10.941406 6.28125 9.144531 3.445312 8.0625 0 C 6.988281 -3.445312 6.453125 -7.175781 6.453125 -11.1875 C 6.453125 -16.070312 7.421875 -20.804688 9.359375 -25.390625 C 11.296875 -29.984375 14.054688 -33.96875 17.640625 -37.34375 C 21.234375 -40.71875 25.328125 -42.976562 29.921875 -44.125 C 34.078125 -45.125 37.660156 -46.953125 40.671875 -49.609375 C 43.691406 -52.265625 46.5625 -55.097656 49.28125 -58.109375 C 52.007812 -61.128906 54.878906 -63.75 57.890625 -65.96875 C 60.910156 -68.195312 64.5 -69.3125 68.65625 -69.3125 C 72.820312 -69.3125 76.519531 -68.160156 79.75 -65.859375 C 82.976562 -63.566406 85.703125 -60.695312 87.921875 -57.25 C 90.148438 -53.8125 91.835938 -50.222656 92.984375 -46.484375 C 94.128906 -42.753906 94.703125 -39.382812 94.703125 -36.375 C 94.703125 -31.5 95.523438 -26.976562 97.171875 -22.8125 C 98.828125 -18.65625 102.664062 -15.644531 108.6875 -13.78125 C 110.695312 -13.195312 112.5625 -12.1875 114.28125 -10.75 C 116.007812 -9.320312 116.875 -7.460938 116.875 -5.171875 C 116.875 -1.722656 115.4375 1.144531 112.5625 3.4375 C 109.695312 5.738281 106.613281 6.890625 103.3125 6.890625 C 96.707031 6.890625 91.21875 5.203125 86.84375 1.828125 C 82.46875 -1.546875 78.878906 -5.882812 76.078125 -11.1875 C 73.285156 -16.5 70.957031 -22.097656 69.09375 -27.984375 C 67.226562 -33.867188 65.429688 -39.320312 63.703125 -44.34375 Z M 63.703125 -44.34375 "/></g></g></g></svg>